<svg xmlns="http://www.w3.org/2000/svg" xml:space="preserve" style="fill-rule:evenodd;clip-rule:evenodd;stroke-linejoin:round;stroke-miterlimit:2" viewBox="0 0 687 215"><path d="M37.832 1535.53h1415.56v484.081H37.832z" style="fill:none" transform="matrix(.4852 0 0 .44366 -18.36 -681.25)"/><path d="m694.29 1631.38-15.432 12.58q-14.271-.24-33.431-.24v72.96c0 5.35.661 10.02 1.982 13.99q1.982 5.955 5.088 9.33 3.105 3.36 7.597 5.31c2.995 1.3 5.902 2.12 8.721 2.48q4.228.525 9.118.18c1.762-.08 3.567-.48 5.417-1.18 1.85-.71 3.986-1.76 6.409-3.13 2.422-1.38 4.074-2.27 4.955-2.66v1.54c-.44.23-1.828 1-4.162 2.3-2.335 1.29-3.986 2.2-4.955 2.71s-2.511 1.34-4.625 2.48-3.788 1.99-5.021 2.54q-1.85.825-4.361 1.83c-1.673.67-3.105 1.16-4.294 1.48-1.189.31-2.269.47-3.238.47-3.875.08-7.487-.22-10.835-.89-3.347-.67-6.739-1.99-10.174-3.95a29.1 29.1 0 0 1-8.787-7.74c-2.423-3.18-4.383-7.45-5.88-12.8-1.498-5.36-2.246-11.57-2.246-18.66v-68.59h-14.932l34.752-36.83v23.61h100.019v.36c-3.876.39-7.157 1.12-9.844 2.18a17.9 17.9 0 0 0-6.871 4.78q-2.841 3.195-2.378 8.85c.308 3.78 1.783 8.27 4.426 13.46l26.295 51.36 10.835 20.07 26.56-54.78-15.196-29.75-9.514-16.53h52.194v.36c-3.876.39-7.158 1.12-9.844 2.18a17.9 17.9 0 0 0-6.871 4.78q-2.841 3.195-2.379 8.85c.308 3.78 1.784 8.27 4.427 13.46l26.163 51.36 10.967 20.07 34.619-71.43c1.938-4.17 3.15-7.87 3.634-11.09q.728-4.845-.132-7.74c-.573-1.92-1.762-3.62-3.568-5.07-1.806-1.46-3.479-2.52-5.021-3.19s-3.59-1.4-6.144-2.18v-.36h39.641v.36c-5.022 1.73-9.426 4.56-13.214 8.5-3.788 3.93-8.104 10.97-12.949 21.13l-45.719 94.32h-1.057l-38.848-75.67-36.47 75.67h-1.189l-55.233-107.78zm-5.885 161.3c.118.22.187.32.135.25a1 1 0 0 1-.135-.25m-483.856 1.45h-28.531c.05-1 0-2.55 0-2.55s23.752 2.77 33.839-26.43c1.28-7.91.973-21.23.973-24.58v-78.76c0-5.46-.958-10.03-2.874-13.7-1.369-2.77-3.65-4.69-6.844-5.75s-6.342-1.02-9.445.13l-5.749 2.2-.548-.86 33.126-14.31c4.106 3.84 7.186 7.81 9.239 11.93 2.053 4.11 3.08 9.19 3.08 15.22v5.38q5.202-5.505 9.582-9.54l6.57-5.87q1.506-1.335 2.327-1.95l-.137-.12 9.445-7.22q9.582-7.215 22.106-7.77c8.35-.36 15.947 1.61 22.791 5.94l7.118 4.4-18.205 14.67-11.909-10.51q-4.928-4.29-11.84-4.71-6.913-.435-12.388 3.36l-2.874 2.08q-.685.615-2.259 1.83a154 154 0 0 1-2.395 1.84c-1.461 1.22-3.651 3.14-6.571 5.75q-3.969 3.54-11.361 11.13l-1.682 75.21c0 3.1-.647 19.49-1.061 29.65.755 5.94 2.983 10.32 8.933 11.3 4.663.76 6.033.36 13.006.68 56.795.72 283.117.36 538.05-.68 0 0 430.249.3 519.909.3h18.8v.27c-10.42 6.45-14.49 10.21-14.49 10.21-8.43.1-32.25 0-32.25 0s-13.12-.03-17.89 0c-92.64.56-248.61-1.51-484.743-.29-2.096 7.73-12.327 16.42-11.148 26.7 1.419 12.35 21.679 19.41 22.116 19.81.294.27.223.76.517 1.03-.415.07-.742.39-1.156.46-.011 0-6.676-1.72-12.153-4.25-14.708-6.79-17.767-15.86-16.88-24.26-6.299 5.37-14.745 11.25-25.639 17.46-.666 1.05-1.387 2.22-1.693 2.86-5.856 12.2 5.611 21.59 6.86 22.75 1.933 1.79 3.851 3.36 5.663 4.79.272.03.532.1.769.22 1.08.57 1.319.79 1.446 1.51 7.112 5.51 11.765 9.22 7.527 17.38-1.05 2.02-3.157 4.91-5.836 8.03-.599.7-.579.71-.649.75-.487.31-.612.04-1.104.34.059-.34-.199-.69-.14-1.03.098-.57 6.522-10.39 4.177-14.58-.734-1.31-2.467-2.56-4.824-4.08-3.896 9.45-17.636 18.01-19.921 19.61-.078.05-.134.15-.233.16-.683.05-.677-.1-1.357-.05.088-.4-.028-.82.059-1.22.047-.21 17.319-12.85 16.817-21.44-3.14-2.04-6.742-4.59-10.356-8.04-8.178-7.8-9.548-15.91-8.458-22.23-3.156 1.44-5.533 2.54-9.137 5.15-15.746 11.42-4.509 24.34 2.105 29.57.196.16.445.27.591.47.09.12.239.4.078.43-.16.02-.325.11-.481.07-.412-.11-18.743-9.47-14.415-24.5 3.283-11.4 17.602-18.11 22.175-20.72.64-.36 12.98-6.88 26.174-16.34 7.945-5.7 12.42-9.99 14.916-13.16.592-1.35 1.105-2.56 1.446-3.58-11.979.06-24.161.14-36.548.22q-14.436.105-28.304.21c.076.6.138 1.28.179 2.03 7.686 3.98 21.994 13.98 17.339 23.89-.042.09-.045.21-.131.27-.171.12-.423.12-.594.24-.044-.19-.225-.34-.269-.53-.041-.18 4.764-8.99-15.14-18.22q-.686-.315-1.252-.57c-.162 2.63-.537 5.81-1.231 9.64-1.714 9.44-4.613 18.22-7.442 22.51-15.722 23.8-51.65 33.97-57.789 29.11-.028-.02-.074-.03-.079-.06-.082-.45-.015-.44-.097-.89.324.03.656-.01.981.02.268.03 1.234 1.38 7.562.03 11.376-2.41 30.568-12.64 40.38-27.5-17.025 2.37-22.533 4.98-24.576 13.96-.037.16-.003.35-.108.49-.134.18-.431.22-.565.4-.08-.2-.363-.31-.444-.51-.001 0 .065-1.15.238-2.25 1.535-9.84 9.54-13.19 28.579-17.88 3.495-9.17 4.924-29.53 2.534-33.92l.389-.18c-.157 0-.313.01-.47.01-.002.02.001.05.01.08a.4.4 0 0 0-.042-.08c-7.883.05-15.626.11-23.232.17-1.587 13.8-20.254 18.81-35.291 26.39-2.335 1.18-4.394 2.29-6.233 3.39.184 6.75 4.778 9.93 8.62 14.87.069.09.182.16.207.26.033.15.118.45-.043.44-.161-.02-.333.01-.483-.04-.11-.04-.06-.18-3.167-2.52-3.724-2.81-7.325-5.44-9.231-10.33-4.527 3.3-7.508 6.81-10.439 11.82-12.034 20.58.146 34.07-6.013 46.25-1.465 2.89-3.894 4.91-3.958 4.97-.157.15-.262.35-.458.46-.126.06-.431.15-.438.01-.006-.13-.08-.27-.02-.39.127-.24 4.058-3.59 4.006-10.06-.065-8.19-5.86-17.42-4.492-30.62.36-3.47 1.54-7.68 3.449-11.92-3.915.22-4.865 1.93-5.661 5.32-1.535 6.54-.643 16.79-10.926 21.06-.483.2-.799.05-.841.05.109-.13.128-.31.237-.44.155-.18 4.671-2.21 6.061-7.79 1.947-7.83-1.977-16.2 4.473-20.83 3.047-2.19 7.505-2.03 9-1.93 1.913-3.28 4.259-6.42 6.994-9.05 9.756-9.4 25.765-15.65 35.234-23.39 3.459-2.82 4.278-4.75 4.406-5.88-14.464.11-28.412.21-41.863.3-4.083 6.98-13.669 13.18-16.395 15.81-6.476 6.25-5.061 12.03-5.52 13.6-.011.04-.002.09-.038.11-.5.28-.537.22-1.04.5-.413-.69-.522-.66-.56-1.15-.175-2.22-2.273-9.41 6.094-18.05 2.083-2.16 6.404-6.49 8.976-10.76-27.917.19-53.645.37-77.359.51 3.186 5.07 8.156 11.15 10.34 13.27.788.76 1.369 1.27 1.861 1.69 5.635 1.1 23.199 3.55 31.726-1.24.07-.04.125-.12.207-.12.223-.02.441.08.663.07-.072.19-.014.41-.086.6-.004.01-.399.3-.405.3-4.805 3.51-13.585 4.99-22.375 5.33-1.695.07-3.276.09-4.703.08 2.956 3.42 5.26 5.57 18.039 6.39.385.02.282.19.661.44-.349.29-.227.44-.611.5-18.939 2.79-19.374-2.8-27.24-7.71-4.101-2.57-9.215-9.48-11.658-13.73-.554-.96-1.917-3.32-2.98-5.82-8.142.05-16.042.09-23.706.14-.709 2.25-1.322 6.64.087 10.9 4.734 14.32 21.235 18.03 26.325 19.62 10.393 3.23 28.053 9.21 32.467 18.55.234.27.507.6.755.93.521.68 3.598 4.73 3.34 9.93-.375 7.56-7.712 14.17-1.45 22.47.077.1.422.42.177.6-.25.19-.533-.19-.625-.28-8.063-7.86-1.603-15.56-2.362-24.34-3.447 7.03-14.021 12.21-15.392 13.03-.174.1-.306.29-.512.32-.272.04-.542-.17-.815-.13.135-.22.013-.51.148-.73.045-.07.126.01 2.107-1.51 16.562-12.71 10.495-18.55 7.869-20.89-8.375-7.44-30.259-11.92-36.09-13.84-8.623-2.83-14.411-6.89-18.332-11.06-.146 6.14-.592 12.32-1.941 17.64.398 3.22 1.213 8.49 3.638 11.73 4.973 6.65 16.552 9.67 25.13 14.43 11.223 6.23 14.207 11.25 14.916 12.35 5.551 8.57-1.255 13.1-1.873 13.56-.095.07-.168.18-.288.21-.206.04-.43-.06-.637-.01.055-.19-.04-.39.014-.57.123-.41 6.001-4.8-.508-11.5-1.113-1.15-5.731-5.58-15.714-10.47-3.868-1.89-8.111-3.66-12.112-5.6a5.4 5.4 0 0 1-.657 2.13c-2.405 4.43-10.206 5.38-14.986 9.54-.517.45-.618.29-.792.37.024-.16-.232-.21.229-.99 3.693-6.24 11.596-9.25 11.266-13.38a5 5 0 0 0-.03-.28c-3.633-2.12-6.771-4.54-8.82-7.54-1.138-1.67-1.927-3.37-2.525-5.24a15.7 15.7 0 0 1-2.508 2.81c-6.628 5.8-15.78 7.17-18.353 11-2.175 3.24.944 8.05 2.547 10.55l-1.065.64c-6.212-7.54-6.546-12.15.74-16.86 5.093-3.3 11.981-5.96 14.489-11.73 4.331-9.98.625-31.22.679-44.27-.035-.72-.04-1.4-.025-2.02-16.65.09-32.136.17-46.541.24 3.447 3.7 8.138 8.52 10.901 13.64h.024c.62.04 4.87.3 7.345 2.24 4.267 3.36 3.16 10.07 3.676 13.38.38 2.43 1.472 4.72 6.02 5.94.11.03.246.02.332.09.163.13.213.35.376.48-.205.07-.337.26-.543.33-.001 0-.857-.05-1.723-.21-10.39-1.83-6.57-12.18-11.656-16.18-.535-.42-.963-.93-1.987-1.48.6 2.32.631 4.65-.187 6.92-1.721 4.78-6.343 6.13-7.813 11.6-.371 1.39-1.065 5-1.092 5.03-.265.34-.715.54-.981.87-.138-.39-.635-.63-.772-1.02-.064-.18.023-4 .031-4.35.105-4.57 1.57-6.5 4.434-10.93 2.283-3.53.148-7.64-3.511-11.91-1.334 13.54-11.914 26.09-13.027 28.2-2.948 5.6-4.308 10.91-5.027 15.86.268.63.762 1.37 1.707 2.02 3.245 2.23 9.846 3.29 12.636 13.07.056.2.107.39.16.59.098.36-.253.48-.474.2-.224-.28-2.092-5.77-7.428-8.55-2.451-1.27-5.17-1.96-7.054-3.48-.772 8.25-.368 15.36-3.713 20.95-.048.08-.064.19-.146.24-.14.09-.343.08-.484.17-.004-.15-.187-.27-.191-.43-.014-.59 1.585-2.57.719-10.66-.941-8.79-3.583-19.99 2.529-32.71 2.086-4.34 16.018-20.95 10.997-34.38a114 114 0 0 1-1.873-1.86c-1.252-1.26-2.364-2.45-3.231-3.62-.657.01-1.311.01-1.964.01-14.18 9.24-6.109 15.58-10.103 24.55-3.506 7.87-15.302 11.27-18.939 12.57-.091.03-.17.13-.266.11-.648-.13-.588-.28-1.231-.4.203-.35.248-.75.451-1.1.056-.09 11.773-5.47 14.49-11.53 3.084-6.89-3.892-13.84 4.137-24.15-16.382.06-31.167.1-44.518.12 2.113 7.12 6.655 7 7.562 12.72.85 5.35-3.025 13.46-3.846 15.58-.012.03-.205.89-.51.42-.088-.14-.21-.26-.262-.41-.034-.09.043-.09.234-1.25 2.244-13.61-.34-14.87-2.398-16.36-2.895-2.1-6.226-4.29-8.89-10.69-27.742.03-48.873-.06-65.067-.24 2.126 3.65 4.792 7.76 8.424 11.86 13.319 15.06 31.793 15.69 40.889 17.25 15.102 2.59 16.885 6.43 27.111 20.52 1.157 1.59 1.189 1.58 1.187 1.63-.021.8-1.23 0-1.251.8-14.059-15.91-14.278-17.75-31.966-18.79-2.062-.13-5.25-.23-9.117-.68 4.79 3.92 8.262 7.61 10.567 11.41 1.345 1 3.212 2.04 5.857 3.83 8.026 5.42 17.026 8.85 19.592 13.92.027.05.078.1.078.16-.001.17-.08.34-.081.5-.093-.05-.329 0-.717-.42-3.236-3.54-11.939-5.21-19.302-8.17 7.802 11.98 23.189 31.41 38.803 32.28 4.13.23 6.541-.68 6.744-.67.192.01.331.21.523.22-.125.13-.125.33-.249.47-.011.01-3.314 1.35-7.345 1.44-16.71.33-31.686-15.96-40.38-28.04-.857 21.59-9.36 28.32-9.442 28.4-4.077 3.99-9.443 5.62-11.506 4.97 1.959-.36 5.091-3.36 6.866-6.05 4.187-6.34 8.427-14.17 8.565-30.19.1-11.48-10.324-19.27-20.376-26.37-8.351-2.4-17.561-6.88-25.163-15.41-4.092-4.59-8.6-13.07-9.233-14.26-.136-.26-.261-.49-.38-.72h-23.377c-.006.35-.014.76.004 1.25.46 13 7.522 21.07 14.143 26.6.165 0 .351.01.564.02 17.862.4 28.67-1.68 42.04 24.16l.313.61c.073.14.013.5-.154.45s-.37-.04-.501-.14c-.371-.3-8.06-13.1-17.284-17.85-5.981-3.07-11.173-2.99-19.062-2.72 7.214 5.27 13.869 9.68 15.742 16.01.018.06.068.12.051.18-.129.46-.223.43-.352.89-.25-.22-.598-.33-.848-.54-.121-.11-1.029-3.21-6.477-6.85-9.655-6.46-26.495-11.58-34.045-26.21-3.636-7.05-3.828-14.57-3.887-15.75l-.004-.11h-30.45c.458 6.75 1.768 12.54 3.685 17.61 2.859 2.11 7.1 4.62 11.049 5.83 4.965 1.52 9.367 6.93 9.996 10.81.01.07.053.14.027.19-.065.15-.222.26-.287.41-.118-.12-.332-.14-.45-.26-.056-.05-.169-.67-1.14-2.02-1.996-2.76-6.058-5.5-8.942-6.02-2.272-.4-4.79-1.25-7.228-2.34 11.844 21.77 35.441 29.06 42.192 49.82 1.829 5.62 2.329 12.1 1.011 19.92-.031.18.033.4-.096.55-.41.47-.615.26-1.027.73-.185-.35-.627-.56-.812-.92-.2-.38 1.933-11.75-4.37-22.6-2.405-4.14-5.667-7.65-9.42-10.92-.165 1.67-.055 4.41.894 8.55.435 1.9 1.988 7.07-3.961 9.69-.12.06-.227.16-.36.16-.297.02-.59-.11-.888-.1.163-.22.208-.5.371-.72.172-.23 3.709-1.7 2.961-5.52-.437-2.23-3.647-7.98-3.66-13.06-.002-.47.014-1.46.368-2.5-5.371-4.17-11.371-8.19-17.161-13-3.305 7.2-12.474 13.4-16.724 28.48-2.088 7.41-2.152 14.07-2.202 14.19-.079.18-.388.24-.466.43-.084-.19-.397-.24-.481-.42 0 0-.164-1.83-.234-3.85-.437-12.5 2.573-21.03 5.863-27.39-3.675 2.07-7.327 3.89-9.245 5.25-5.501 3.9-4.47 6.66-5.006 7.58-.143.24-.251.08-.706.21-.039-.16-.143-.14-.12-.86.031-1-.667-5.23 7.847-10.9 1.13-.75 8.028-5.13 11.506-8.63 2.508-4.12 4.183-7.22 3.007-10.46-8.483-8.69-15.633-20.17-18.332-37.92m924.581 46.69c2.87.23 5.48.84 7.81 1.82 3.05 1.29 5.41 3.05 7.06 5.3 1.66 2.25 2.48 4.81 2.48 7.68q0 4.635-2.67 8.37c-1.79 2.48-4.22 4.44-7.31 5.87-3.08 1.43-6.54 2.15-10.37 2.15-2.07 0-4.34-.09-6.81-.26q-1.365-.09-3.21-.18c-1.24-.06-2.63-.09-4.19-.09l-6.81.09c-1.24.06-2.89.09-4.97.09-.2 0-.29-.18-.29-.53s.09-.52.29-.52c2.27 0 3.96-.17 5.06-.49 1.11-.32 1.87-.89 2.29-1.71.42-.81.63-2.1.63-3.85v-40.59c0-1.75-.21-3.04-.63-3.86-.42-.81-1.17-1.38-2.24-1.71q-1.605-.48-5.01-.48c-.13 0-.2-.17-.2-.53 0-.34.07-.52.2-.52l4.87.09c2.85.11 5.12.17 6.81.17 1.82 0 3.73-.08 5.74-.26.72-.06 1.58-.12 2.59-.18 1-.05 2.09-.08 3.26-.08 5.58 0 9.81 1.03 12.7 3.11 2.89 2.07 4.33 4.86 4.33 8.37 0 3.27-1.36 6.14-4.09 8.59q-2.91 2.625-7.32 4.14m-13.31-.03c1.53.07 2.96.1 4.28.1 4.28 0 7.5-1.11 9.64-3.33s3.21-5.15 3.21-8.77c0-3.33-.92-5.94-2.77-7.84q-2.775-2.85-8.52-2.85c-1.56 0-2.75.14-3.56.44-.81.29-1.39.86-1.75 1.7-.36.85-.53 2.15-.53 3.9zm0 2.25v21.52c0 1.46.22 2.58.68 3.37.45.79 1.3 1.38 2.53 1.75 1.23.39 3.08.58 5.55.58 4.61 0 8.03-1.09 10.27-3.25s3.36-5.26 3.36-9.29c0-4.44-1.36-8.01-4.09-10.69-2.73-2.69-6.59-4.07-11.59-4.13-2.25-.08-4.49-.03-6.71.14m118.46-17.02c0 2.22.62 4.16 1.85 5.83 1.24 1.66 2.73 3.09 4.48 4.29 1.76 1.2 4.19 2.65 7.3 4.34 3.25 1.81 5.83 3.37 7.74 4.69a19.4 19.4 0 0 1 4.92 4.86c1.36 1.93 2.05 4.21 2.05 6.84 0 2.87-.83 5.45-2.49 7.76-1.65 2.31-4.02 4.12-7.1 5.44-3.09 1.31-6.67 1.97-10.76 1.97-2.6 0-5.16-.28-7.69-.84-2.53-.55-4.74-1.35-6.62-2.41-.33-.17-.56-.38-.69-.61s-.19-.58-.19-1.05l-.97-12.54c-.07-.23.08-.38.43-.44.36-.05.57.03.64.27 1.55 4.44 3.73 8.21 6.52 11.31 2.79 3.09 6.42 4.64 10.9 4.64 3.05 0 5.62-.74 7.7-2.23 2.07-1.49 3.11-3.93 3.11-7.32q0-3.855-1.95-6.75a18.3 18.3 0 0 0-4.77-4.87c-1.88-1.31-4.38-2.82-7.49-4.51-3.05-1.76-5.47-3.26-7.26-4.52-1.78-1.25-3.29-2.8-4.52-4.64-1.24-1.84-1.85-3.99-1.85-6.45q0-4.47 2.67-7.62c1.79-2.11 4.13-3.67 7.01-4.69a27.2 27.2 0 0 1 9.11-1.54c4.28 0 8.21.67 11.78 2.02.97.41 1.46.93 1.46 1.58l.48 10.96c0 .23-.17.36-.53.39s-.57-.07-.63-.31q-1.08-4.725-4.53-8.94c-2.31-2.8-5.6-4.21-9.88-4.21-3.25 0-5.76.88-7.55 2.63-1.78 1.76-2.68 3.98-2.68 6.67m-255.611 23.09-5.419 11.31c-.908 1.99-1.363 3.63-1.363 4.91 0 1.87.812 3.27 2.434 4.21 1.623.93 3.96 1.4 7.01 1.4.325 0 .487.18.487.53s-.162.52-.487.52c-1.168 0-2.856-.06-5.062-.17q-3.7-.18-6.426-.18-2.532 0-6.036.18c-2.077.11-3.765.17-5.063.17-.26 0-.389-.17-.389-.52s.129-.53.389-.53q2.726 0 4.625-.96 1.898-.975 3.65-3.33 1.753-2.37 3.992-7.02l20.738-43.04c.065-.17.292-.28.681-.3q.585-.045.682.3l23.368 43.39c2.27 4.27 4.17 7.16 5.69 8.68 1.53 1.52 3.26 2.28 5.21 2.28.33 0 .49.18.49.53s-.16.52-.49.52c-1.23 0-3.15-.06-5.74-.17-2.73-.12-4.67-.18-5.84-.18q-2.25 0-5.55.18c-2.21.11-3.87.17-4.97.17-.26 0-.39-.17-.39-.52s.13-.53.39-.53q3.315 0 4.77-.57c.98-.38 1.46-1.06 1.46-2.06 0-.99-.48-2.37-1.46-4.12l-8.05-15.08zm22.301-1.93-11.27-21.09-10.107 21.09zm-138.179 16.92c0 1.64.179 2.82.536 3.55s1.022 1.23 1.996 1.49q1.46.39 4.575.39h8.276c4.089 0 7.48-1.09 10.174-3.28s4.495-5.16 5.403-8.9c0-.18.179-.25.536-.22s.535.13.535.31c-.584 5.14-.876 9.41-.876 12.8 0 .46-.113.8-.341 1-.227.21-.6.31-1.119.31h-45.37c-.129 0-.194-.17-.194-.53 0-.35.065-.52.194-.52 2.337 0 4.057-.15 5.16-.44q1.655-.435 2.24-1.71.584-1.275.584-3.9v-40.59c0-1.75-.195-3.04-.584-3.85q-.585-1.23-2.24-1.71c-1.103-.32-2.823-.49-5.16-.49-.129 0-.194-.17-.194-.52s.065-.53.194-.53l4.868.09q4.284.18 6.913.18 2.628 0 6.912-.18l4.868-.09c.13 0 .195.18.195.53s-.065.52-.195.52c-2.336 0-4.04.17-5.111.49s-1.801.9-2.191 1.75q-.584 1.275-.584 3.9zm-531.832-215.89c13.654-11.81 30.964-17.71 51.93-17.71 20.965 0 38.253 5.88 51.863 17.65q20.415 17.655 20.415 45.39 0 27.75-20.415 45.45c-13.61 11.81-30.898 17.71-51.863 17.71-13.743 0-26.119-2.65-37.131-7.97-11.011-5.31-19.644-12.79-25.898-22.43q-9.382-14.46-9.382-32.76 0-27.735 20.481-45.33m62.897 104.95c11.892 0 21.384-3.98 28.475-11.92q10.637-11.925 10.637-32.7c0-7.17-.969-14.35-2.907-21.55q-2.907-10.8-8.391-20.25c-3.655-6.29-7.95-11.9-12.883-16.82s-10.593-8.79-16.979-11.63c-6.387-2.83-13.06-4.25-20.019-4.25-11.892 0-21.384 3.96-28.475 11.87q-10.637 11.865-10.637 32.52c0 9.05 1.542 18.04 4.625 26.98 3.083 8.93 7.267 16.92 12.553 23.96 5.285 7.05 11.782 12.77 19.49 17.18s15.878 6.61 24.511 6.61m90.505-104.95c13.654-11.81 30.964-17.71 51.93-17.71 20.965 0 38.253 5.88 51.863 17.65q20.415 17.655 20.415 45.39 0 27.75-20.415 45.45c-13.61 11.81-30.898 17.71-51.863 17.71-13.742 0-26.119-2.65-37.13-7.97-11.012-5.31-19.645-12.79-25.899-22.43q-9.382-14.46-9.382-32.76 0-27.735 20.481-45.33m62.897 104.95c11.892 0 21.384-3.98 28.475-11.92q10.637-11.925 10.637-32.7c0-7.17-.969-14.35-2.907-21.55q-2.907-10.8-8.39-20.25c-3.656-6.29-7.951-11.9-12.884-16.82s-10.593-8.79-16.979-11.63c-6.387-2.83-13.06-4.25-20.019-4.25-11.892 0-21.384 3.96-28.475 11.87q-10.637 11.865-10.637 32.52c0 9.05 1.542 18.04 4.625 26.98 3.083 8.93 7.267 16.92 12.553 23.96 5.285 7.05 11.782 12.77 19.49 17.18s15.878 6.61 24.511 6.61m513.842-15.47v-76.02c0-5.28-.92-9.68-2.77-13.22-1.32-2.68-3.52-4.53-6.61-5.55-3.08-1.03-6.12-.99-9.11.12l-5.55 2.12-.53-.83 31.97-13.81c3.97 3.7 6.94 7.54 8.92 11.51 1.98 3.98 2.98 8.87 2.98 14.7v5.19c3.34-3.54 6.43-6.61 9.24-9.2l6.35-5.67c.97-.87 1.72-1.5 2.24-1.89l-.13-.12 9.12-6.96c6.17-4.65 13.28-7.15 21.34-7.5s15.39 1.56 22 5.73l6.87 4.25-17.57 14.16-11.5-10.15c-3.17-2.75-6.98-4.27-11.43-4.54-4.45-.28-8.43.8-11.96 3.24l-2.77 2.01c-.44.39-1.17.98-2.18 1.77s-1.79 1.38-2.31 1.77c-1.41 1.18-3.53 3.03-6.35 5.55-2.55 2.28-6.21 5.86-10.96 10.74v72.6q0 6.615 4.95 11.46c3.3 3.22 7.38 5.03 12.22 5.43v.35h-53.78v-.35q7.41-.6 12.36-5.49 4.95-4.905 4.95-11.4m139.14-44.15c-.09.08-.14.16-.14.24 0 .16-.04.23-.13.23l-11.63 13.93v29.75c0 4.41 1.66 8.23 4.96 11.46 3.3 3.22 7.38 5.03 12.22 5.43v.35h-53.78v-.35q7.395-.6 12.36-5.49 4.95-4.905 4.95-11.4V1594.5q0-3.555-3.3-5.55c-2.2-1.34-4.54-1.58-7-.71l-8.33 2.83v-.94l18.63-7.91 19.29-8.15v130.57l11.9-14.17c7.48-9.68 13.5-17.29 18.03-22.84 4.54-5.55 9.36-10.9 14.47-16.06 5.11-5.15 9.47-8.89 13.08-11.21s7.97-4.39 13.08-6.2 10.18-2.91 15.2-3.3q7.53-.6 18.63-.36l-8.98 17.83c-15.24-.16-28.22 2.12-38.92 6.84-10.7 4.73-20.59 11.77-29.66 21.14l46.38 46.98c11.36 11.57 18.58 18.65 21.67 21.25 4.93 4.17 10.52 7.64 16.78 10.39h-33.17l-63.82-64.69zm-241.554 63.16c-9.608.04-17.113-2.65-28.125-7.97-11.011-5.31-19.644-12.79-25.898-22.43q-9.382-14.46-9.382-32.76 0-27.735 20.481-45.33c13.654-11.81 30.964-17.71 51.929-17.71s38.259 5.88 51.869 17.65c13.6 11.77 20.41 26.9 20.41 45.39 0 18.5-6.81 33.65-20.41 45.45-11.44 9.92-25.424 16.12-42.043 17.71-4.154.4-8.623.35-13.134-1.32-3.695-1.36-9.431-6.56-10.209-11.9-.728-4.99.966-10.74 3.415-15.44 2.202-4.23 5.305-7.42 8.357-12 4.3-6.43 10.143-12.55 16.559-17.33.554-.41.985-.77.957-.78-.08-.02-2.354 1.31-4.061 2.41-8.735 5.59-15.722 12.46-20.413 20.03l-1.399 2.26-.792-.23c-1.854-.51-3.64-1.7-5.159-3.44-1.89-2.18-2.836-4.46-2.798-6.82.073-5.29 4.091-10.51 11.125-14.46 3.437-1.93 6.809-3.28 11.544-4.62 5.848-1.66 11.505-2.64 18.935-3.28 3.289-.28 9.656-.59 9.956-.47.06.02 0 .18-.13.34-.591.73-1.427 2.22-1.779 3.16-.786 2.12-1.059 4.28-1.161 8.95-.134 6.68-.384 9.31-1.149 12.29-.91 3.57-2.799 7.18-5.266 10.14-4.74 5.66-10.268 8.27-16.191 7.65-2.475-.26-4.675-.95-6.743-2.09-2.169-1.2-3.55-2.39-4.469-3.8l-.479-.75-.574 1.65c-1.613 4.65-4.12 24.01 11.367 26.07 1.595.22 2.471.25 4.833.24 11.892-.05 21.381-3.98 28.471-11.92 7.1-7.95 10.64-18.85 10.64-32.7 0-7.17-.97-14.35-2.91-21.55-1.93-7.2-4.73-13.95-8.39-20.25-3.65-6.29-7.947-11.9-12.88-16.82s-10.593-8.79-16.979-11.63c-6.387-2.83-13.06-4.25-20.019-4.25-11.892 0-21.384 3.96-28.475 11.87q-10.637 11.865-10.637 32.52c0 9.05 1.541 18.04 4.625 26.98 3.083 8.93 8.723 21.09 18.321 28.32-1.733 18.27 18.132 22.9 18.26 22.97" style="fill:#245236" transform="matrix(.59453 0 0 .66545 -103.133 -1044.727)"/></svg>