<svg xmlns="http://www.w3.org/2000/svg" xml:space="preserve" style="fill-rule:evenodd;clip-rule:evenodd;stroke-linejoin:round;stroke-miterlimit:2" viewBox="0 0 1333 1344"><path d="M-365.818-261.78h2084.46v2133.07h-2084.46z" style="fill:none" transform="matrix(.63942 0 0 .62965 233.91 164.83)"/><path d="M5828 12835c-129-34-217-127-312-329-44-93-63-120-118-172-37-33-68-59-70-57s6 30 16 62c25 76 37 170 24 192-8 15-15 11-52-28-23-25-55-68-70-94-27-46-122-312-122-341 0-26 43-14 173 49 71 34 180 77 242 94 143 40 172 59 210 133 39 75 149 186 237 238 37 22 113 54 170 72 119 38 119 37 0 115-54 35-99 55-150 66-87 20-103 20-178 0" style="fill:#abff4f;fill-rule:nonzero" transform="matrix(.09524 0 0 -.09524 39.847 1315.65)"/><path d="M790.393 160.268c-5.908-4.417-11.811-8.842-16.37-13.195-17.238-16.476-33.809-27.619-64.762-43.714-28.095-14.572-67.809-31.81-69.524-30.095-.19.19 3.619 2.476 8.477 5.143 12.761 6.857 12.666 6.666 14.666 12.571 2.572 7.524 6.095 13.238 12.286 19.809 4 4.381 4.952 6 4.095 6.858-1.714 1.714-4.095 1.523-12.19-1.239-10-3.333-18.476-8.571-26.667-16.38-7.143-6.667-16-18.953-17.905-24.762-.952-2.857-1.809-3.334-9.809-5.715-21.524-6.476-31.143-8-56.191-8.571-20.19-.571-24-.857-26.285-2.381-1.524-1.048-2.667-2.667-2.667-3.714 0-5.143 9.238-11.238 26.095-17.048 6-2.095 6.762-2.571 7.715-5.905 1.428-4.666 7.619-12.666 12.857-16.762 9.523-7.238 26.285-11.142 51.333-12 19.809-.666 33.238.762 55.905 5.715 7.428 1.619 14.285 2.952 15.142 2.952.858 0 4.477-1.333 8-2.857 8.381-3.81 18.953-7.048 26.953-8.095 8.762-1.238 23.333-.476 29.619 1.524 6.476 2.095 12.381 6.761 12.381 9.904 0 2.857-1.524 4.096-6 5.048-9.143 1.905-16.191 8.667-17.524 16.571l-.762 4.096 14 14.095c7.619 7.809 16.667 17.905 20 22.476 13.461 18.176 23.217 36.777 34.991 67.926 7.129 13.84 10.554 17.241 17.933 24.139 10.701 10.002 10.771 8.395 25.388 7.951 25.782-.785 39.583 5.739 41.7 21.694-17.593-4.985-26.082-1.956-36.217 3.166-8.579 4.337-12.606 4.883-20.481 1.759 1.293 2.852 5.785 18.622-12.033 26.627-6.783 3.047-14.578 14.233-17.35 26.597-15.98-14.257 2.412-58.864 0-66.452a35.3 35.3 0 0 0-2.853-6.601l-.822.076c-2.606-4.628-7.883-9.422-14.015-14.276-4.75-2.614-9.109-6.935-9.109-6.935M602.214 32.978c-4.953-2-9.238-1.429-11.143 1.429-2 3.047-1.905 3.238 2.095 4 2.286.476 3.524.095 4.952-1.334 1.048-1.143 3.048-2.19 4.381-2.476l2.477-.381z" style="fill:#ff0073" transform="translate(81.347 91.813)"/><path d="M5006 12560c-17-10-40-39-53-65-31-63-33-219-3-303l19-57 19 25c37 48 71 120 82 175 7 31 26 86 43 123 35 75 38 90 19 108-18 19-93 15-126-6M4350 12432c-52-11-96-33-121-60-21-23-65-118-58-125 3-3 40 1 83 7 92 15 232 7 313-17 32-10 108-43 170-74 111-55 198-81 198-59 0 12-102 143-147 190-95 99-306 165-438 138" style="fill:#abff4f;fill-rule:nonzero" transform="matrix(.09524 0 0 -.09524 39.847 1315.65)"/><path d="M8930 12202c-113-18-127-36-54-71 69-34 160-123 192-188 28-58 28-60 12-167-2-18 5-22 50-27 65-7 91-21 128-69 24-32 29-49 29-100 0-55 2-61 22-61 54 0 95-104 70-177-23-64 23-69 60-6 35 59 139 97 168 62 12-14 19-10 54 25 26 27 53 44 78 49 58 11 129-1 156-26 32-30 42-28 62 14 43 91 177 124 323 80 41-12 78-20 81-17 23 23-71 142-178 224-108 83-176 118-231 118-44 0-52-4-65-29-32-61-101-107-159-107-35 0-34 34 0 75 24 28 36 72 21 72-3 0-20-8-38-17-47-24-90-5-99 44-4 20-11 38-16 41-11 7-41-50-41-77 0-11-9-28-21-39-20-18-21-17-52 15-41 44-51 97-30 156l17 45-63 43c-143 97-319 140-476 115m678-411c0-6-5-10-11-10s-10 7-10 16 4 14 10 10c6-3 11-11 11-16m52-15c0-2-5-7-10-11-6-3-11-1-11 5s5 11 11 11c5 0 10-2 10-5" style="fill:#29bf12;fill-rule:nonzero" transform="matrix(.09524 0 0 -.09524 39.847 1315.65)"/><path d="M5581 12067c-29-10-71-32-92-49-48-36-43-46 47-91 90-46 163-61 350-72 92-6 197-18 234-27s69-14 71-12c9 9-78 104-132 145-143 108-344 152-478 106" style="fill:#abff4f;fill-rule:nonzero" transform="matrix(.09524 0 0 -.09524 39.847 1315.65)"/><path d="M3712 12032c-79-12-197-47-252-75-164-83-322-238-470-461-154-232-179-290-196-445-7-71-20-117-49-184-22-49-46-112-53-141-17-63-19-205-4-260 11-38 57-102 73-102 5 0 45 36 89 80s83 77 86 74-7-35-21-71c-59-144-57-235 8-365 42-82 133-188 170-197 21-6 34 3 74 47 26 29 61 63 77 74l30 21-25-79c-49-154-27-241 94-365 79-83 166-140 281-185 114-46 130-57 261-189 75-75 131-122 176-145 153-82 279-45 354 103 56 109 60 149 68 630 7 441 7 447 34 530 38 117 41 147 23 270-9 59-20 188-25 286-13 249-29 288-146 353-34 19-98 74-150 127-175 181-250 217-463 226-67 3-123 9-123 13 0 16 83 34 179 39 169 10 259-30 434-197 68-64 117-100 178-130 124-62 126-67 134-271 8-199 11-224 54-391 47-183 46-294-7-498-50-197-56-301-33-568 11-112 22-208 27-213 4-4 35-12 69-17 82-12 108-23 214-90 121-76 194-101 302-103 53 0 92 4 99 11 9 9-3 37-46 110-70 118-95 166-89 172 5 5 101-80 242-214 110-104 170-135 291-149 106-12 149-26 206-64 132-91 302-349 355-540 27-96 34-339 12-425-34-133-105-210-192-210-105 0-133 129-33 155 43 11 47 25 17 60-35 41-104 46-161 14-54-32-105-117-114-190-8-62 13-160 46-212 83-133 271-203 443-163 215 50 394 257 486 560 55 184 105 558 80 604-12 22-52 38-125 49-63 10-47 19 48 26l81 5 4 74c1 40-2 91-9 112-9 33-18 41-51 50-70 19-130 23-204 13-82-10-79 0 8 30 45 16 83 21 144 20 48-2 88 2 94 9 17 16 0 176-21 202-26 32-133 47-242 35-73-9-84-8-68 4 36 26 135 48 219 50l84 1-1 79c-2 140-34 170-182 171-50 0-118-3-153-7l-63-7 69 33c60 30 80 34 175 38 79 3 108 8 112 19 10 24-23 173-42 194-34 38-129 51-272 37-78-7-82-6-56 8 48 27 146 48 226 48 92 0 94 4 72 122-11 58-16 140-15 272 3 254-11 303-158 567-29 52-65 127-81 168-75 198-90 230-128 287-56 82-141 157-229 203-91 48-158 67-303 87-193 27-264 54-416 158-154 106-230 121-587 119l-257-2-189 40c-166 35-210 40-362 43-95 2-202-1-236-7m1968-1469c75-38 106-93 123-216l7-52-23 20c-12 11-22 25-22 31 0 35-48 104-88 127-62 35-99 41-193 27-46-7-97-11-114-8l-31 3 42 20c165 76 225 86 299 48m-160-201c127.88 34.3 188-132 179-141-4-4-37-9-73-12-56-4-70-2-94 17-22 17-82 107-82 122 0 6 35 13 70 14" style="fill:#08bdbd;fill-rule:nonzero" transform="matrix(.09524 0 0 -.09524 39.847 1315.65)"/><path d="M6602 11865c-41-32-46-79-19-162 17-49 21-81 16-113-8-53 6-97 43-135l26-27-40-17c-49-22-76-67-78-127-1-62 17-113 52-146 71-68 128-58 224 39 37 38 70 69 74 69 5 0-4-25-18-56-29-64-32-90-9-98 21-9 60 29 84 81 30 67 35 47 13-56-23-110-16-159 29-204 48-48 183-25 245 42 29 31 41 108 23 142-12 22-11 23 30 16 56-9 83-1 138 43 25 20 76 47 112 59 74 25 108 58 108 109 0 47-44 85-121 105-106 27-232 16-368-33-120-43-112-42-93-4 23 46 123 106 176 106 14 0 30 6 37 14 37 45-74 17-169-41-34-21-65-36-68-33-5 5-7 17-19 122-8 64-31 127-47 127s-14-24 6-62c24-49 31-149 13-189-8-18-17-33-21-33-3 0-12 30-20 66-28 130-144 324-228 380-58 38-97 43-131 16" style="fill:#abff4f;fill-rule:nonzero" transform="matrix(.09524 0 0 -.09524 39.847 1315.65)"/><path d="M2699 11546c-235-91-315-141-443-277-103-111-148-198-154-307-6-104 7-146 79-258 60-95 149-255 150-270 0-17-122 75-175 131-58 62-80 99-108 181l-19 53-49-2c-73-2-157-49-242-134-41-41-92-105-113-142-42-73-107-230-98-239 2-2 18 5 34 16 124 87 328 139 469 119 36-5 117-29 181-52 147-55 183-89 183-172-1-99-53-186-163-269-77-58-141-114-141-122 0-3 34-6 76-6 55 0 96-7 149-27 107-39 165-53 289-73 147-22 218-41 329-85 50-21 95-35 98-31 10 10-92 145-159 210-102 98-220 160-354 185l-70 13 17 43c12 31 17 77 17 154-1 100-5 124-45 252-69 220-63 313 30 436 82 107 103 150 126 256 28 132 64 205 165 337 95 126 102 137 91 136-5 0-73-26-150-56" style="fill:#29bf12;fill-rule:nonzero" transform="matrix(.09524 0 0 -.09524 39.847 1315.65)"/><path d="M10475 11386c-34-34-46-77-55-198l-6-95 43-83c45-84 49-116 20-150-13-16-90-18-128-4-14 6-55 44-90 86-72 83-77 110-26 152 29 24 33 48 11 66-19 16-48 4-48-19 0-21-25-46-36-35-10 10-8 43 6 65 15 25-4 54-35 54-27 0-36-28-19-58 7-14 10-33 6-43-6-17-8-17-28 1-11 10-20 25-20 32s-9 23-20 36c-16 20-22 22-42 12-32-18-28-34 22-86l45-47-30-3c-17-2-38 4-48 13-21 19-49 13-59-13-9-24 29-53 62-47 36 7 75-15 59-33-6-8-23-17-38-21-21-5-26-12-23-35s10-29 32-32c23-3 31 2 39 23 5 14 19 31 30 37 25 13 32 6 106-111 30-47 65-92 78-100 12-8 55-24 94-34 77-21 92-35 92-93 0-60 39-193 79-269 21-42 64-99 102-136 74-73 102-94 189-139l61-32-38-42c-95-105-83-161 52-253 58-40 61-43 42-57-11-9-32-13-48-10-32 6-51-9-51-42 0-29 24-38 49-19 23 17 56 20 56 4 0-6-12-22-27-36-30-27-30-55-3-72 23-14 51 8 51 40 0 13 8 30 17 38 14 12 19 11 30-5 8-10 12-27 9-37-8-29 24-56 50-43 24 13 26 45 5 62-20 17-32 74-19 87 7 7 18 7 31 0 27-15 48 0 43 31-2 19-11 26-40 30s-51 20-97 71c-33 36-60 70-60 76 0 5 20 20 44 33 25 12 59 32 75 44 29 20 34 20 74 6 62-23 248-142 333-213 138-116 216-253 205-361-7-73-42-143-88-178-46-36-131-45-180-19-61 31-81 114-37 157 24 25 73 21 93-7 14-20 18-21 27-8 17 28 11 53-22 86-29 29-37 32-80 27-171-20-199-252-41-349 44-27 64-32 133-35 69-4 90 0 138 22 220 100 280 412 123 644-86 128-195 231-377 356-50 34-116 86-148 116s-93 72-136 94c-103 51-180 126-226 218-45 91-46 102-4 102 24 0 46 13 90 55 63 59 79 60 107 4 17-35 38-45 59-27 24 19 19 51-10 62-14 6-30 19-36 31-10 17-8 23 9 32 11 6 33 8 50 5 34-7 62 16 52 43-10 26-39 31-70 12-63-37-86-4-37 54 31 36 32 47 11 65-23 19-58 3-58-26s-20-79-32-79c-10 0-20 28-20 54 0 17-6 20-29 18-38-5-42-31-13-71 28-37 23-53-27-91l-38-29-28 21c-59 44-62 62-34 194 42 204 40 231-25 292-15 14-27 30-27 37 0 27-58 92-108 121-72 41-130 43-169 4m130-182c23-23 26-40 11-63s-53 16-53 54c0 35 13 38 42 9" style="fill:#abff4f;fill-rule:nonzero" transform="matrix(.09524 0 0 -.09524 39.847 1315.65)"/><path d="M7739 11042c-171-38-290-169-343-373-9-38-22-142-29-233l-12-164-84-89c-95-101-138-177-178-318-52-181-100-493-100-648 0-55 3-64 22-69 14-3 19-11 15-22-7-18-41-162-51-220-9-47 12-53 72-20 26 15 47 23 47 18s-14-70-31-144c-101-435-136-652-109-661 18-7 84 64 113 120 27 54 67 181 106 332 34 134 32 76-6-146-48-282-57-340-50-347 20-19 116 65 162 143 43 70 70 192 135 598 38 237 47 273 64 273 19 0 47-41 47-69 0-13-8-29-16-36-19-16-21-85-3-103 22-22 50-15 50 13 0 18 9 31 30 42 26 14 32 14 53-1 12-8 19-20 16-26-4-7 1-9 13-7 10 2 24 14 29 26 6 13 20 26 31 29 16 4 19 11 14 42-6 34-3 39 25 54 29 15 32 14 57-11 33-33 43-33 59-3 6 13 18 28 26 32 19 11 18 75-1 92-10 8-34 11-62 8-61-7-74 1-65 45 8 47 9 47 101 117 123 92 287 290 351 423 59 122 73 185 74 320 0 116-2 124-35 191-38 78-85 121-166 156-28 11-66 38-84 59-36 42-56 40-56-6 0-56-74-94-145-75-48 13-90 51-119 107-11 22-34 48-51 58-41 24-49 66-28 149 45 174 186 271 316 216 38-16 39-17 32-60-4-24-22-74-39-111-36-74-35-121 0-169 26-35 51-39 79-13 22 21 29 22 280 12 274-10 326-17 410-53 60-26 71-21 80 35 8 50-20 140-61 196-97 132-379 243-617 243-54 0-88 5-103 15-28 20-134 48-176 47-17-1-58-7-89-14m583-122c46-12 123-41 173-65 75-38 85-45 61-48-38-5-53-26-49-67 3-31 10-38 72-68 37-18 79-45 93-60 30-32 16-37-21-8-90 69-272 120-519 143l-73 7 3 80c5 110 16 122 107 114 38-4 107-16 153-28m-426-1070c-65-169-221-367-390-496-126-95-370-239-384-226-14 14 46 71 125 119 273 168 535 431 645 648 39 76 41 52 4-45m-198-690c25-23 25-41-1-76-26-38-89-45-98-12-7 28 16 74 47 91s30 17 52-3" style="fill:#29bf12;fill-rule:nonzero" transform="matrix(.09524 0 0 -.09524 44.125 1314.021)"/><path d="M5378 8818c-19-19-15-48 8-61 26-14 47-5 69 28 15 22 15 29 3 36-20 13-65 11-80-3" style="fill:#29bf12;fill-rule:nonzero" transform="rotate(148.918 728.814 597.963)scale(.09524)"/><path d="M19328.8-10611.7c287.5 76.9-18.2-222.1 0 0m0 0c-317.7-84.9-434.5 67.9-487.1 401.8-103.5 654.85 245.8 756.68 257.8 1042.07-250.3 556.18 168.9 1103.23-95.6 1678.42l-1112.1-504.1c240.6 961.48 1451.4 3081.65 963.9 3956.82-554.6-611.1-1506.7-536.13-2080 1.79-35.3-586.74-478.5-1414.14-1099.7-1439.55-227-1534.9-1834.4-1962.25-2354.4-3230.03l-203.6 442.8-199.4 62.58c-12.5-129.36-352.7-517.34-414.5-553.46-125.7-73.5-1367.9-760.72-1008.7-1372.54-937.7 4.2-1080.9 673.66-397.8 1259.88 226.6 194.35 1910.3 986.26 1513.3 1376.76l-302.8 52.18c835.2 1022.08 1996.1 1824.59 3125.7 2507.72 215.1 934.61-660.6 1584.45-486 2416.26l-566.4 97.44 7.9 511.56c-513.9-764.29-1126.4-1727.88-2161.7-1807.05-909.5 178.29-1694.1-263.97-1544.7-1339.9-307.2-50.82-477 75.6-659.4 303.24-525.05-611.42-2092.98-1153.33-1370.63-2129.3-1310.86-79.8-1101.77 1179.57-236.3 1707.3l1251.02 727.13-1927.5-506.31c-218.42 429.24 219.01 1335.18 661.59 1418.44 193.9 36.44 1168.58-92.61 1162.84 154.88-314.29 468.51-922.09 21.1-1418.81 152.88 181.5 814.69 537.03 1554.1 1014.77 2231.88-441.64-121.27-439.09 231.735-614.48 350.911-293.09 199.204-892.32 24.806-820.91 547.442-928.93 595.621-1475.16 633.385-3064.97 456.222-66.98-7.464-818.02-391.153-907.72-65.363-104.44 379.321 3236.16 1380.868 4229.99-66.674 405.03 136.011 477.91-306.736 718.45-513.682 110.75-95.339 294.52-103.53 414.71-195.195 131.75-100.38 85.09-321.196 246.46-309.016C9685.75 37.421 11832.7 1913.46 12542.7 2047.44c644.7-638.72 1071.5-1508.538 1436.7-2329.219 369.7-830.761 340-1590.541 1236.5-2113.651 1159.2-676.52 2455.9-19.01 3387.3 745.18 195.9 160.65 1376.3 1503.082 1520.7 1371.726 1281.5-4056.996 6526.6-3858.016 9882.4-4486.966 964.7-929.67 2236.7-1620.89 3596.4-1882.66 109.2-16.9 445.9-119.28 429.8 74.34-1144.8 173.78-1890.4 1111.16-3195.3 1494.65-105.3 30.94-566.3 245.63-406.6 335.3 2536.1-117.08 4610.1-1849.9 7155.2-1829.42 202.4-162.44-721-531.83-710-709.17 0 0-806.4-345.98-812.1-609 309.9 2.73 1319-403.2 1420.7-661.5l-304.1-252.32c577.5 51.56 993.2-368.97 709.5-913.71 910.2-23.52 2359.9-2088.12 813.3-2233.42 221.1 356.3-622 1499.8-907.3 1783.5-459.3 283.6-1393.2 412.65-1429 1260.42l-555.7-608.37C35185-8162.88 33705-8056.62 32457.7-7589.79c-1575.1 589.58-1995.5 965.27-3751 1011.99-924.6 24.57-1137.2 194.57-1543.3 1024.49-2550.4-133.46-5106.9 421.37-6986.7 2230.94l252.1-4468.18-709 405.51c-410.7-612.78 564.1-1797.07-306.2-1828.15 307.2-484.37-49.7-973.61-84.8-1398.51m10745 5560.71c-586.3-94.92-1415.9 3.05-1827.3-505.57 282.2 24.99 742.2-142.17 1031.2-92.41 348.2 59.86 614.5 258.62 796.1 597.98m-18882.4 3047.1 1367.5 1118.151c289.9 1651.861-1367.5-1118.151-1367.5-1118.151M7823 10868c11 11 28 21 38 21 24 0 56-31 56-54 0-45-66-68-99-35-22 22-21 42 5 68m11444-6820.86c-70.7 114.25-146.4 226.37-232.2 326.43-55.2 64.25-114.1 123.91-177.6 177.5 962 597.53 2190.6 969.87 3565.6 1147.97 2462.5 318.98 5389.3 10.53 8138.4-798.61 2740.9-806.72 5307-2110.62 7053-3799.49 1132.9-1095.717 1918.4-2352.35 2159.7-3742.06 23-140.37 20.9-252.84-12.9-346.02-35.8-98.65-108.1-169.63-198.7-234.57-132.3-94.9-299.5-173.01-487.6-257.59-1333.7-600.05-3544.3-862.58-5931.7-882.25-3613.3-29.77-7632 505.11-9679 1356.91-2832.3 1178.51-3159.2 3335.44-3777.9 6049.33 248 325.11 713 507.93 1229.9 645.66 993.6 264.79 2190.1 321.1 2841.2 481.91 162.1 40.05 268.9 194.83 248.7 360.64-20.2 165.8-160.9 290.47-328 290.47h-1776.6c-9.1 0-18.2-.38-27.3-1.13-623.7-51.78-1811.7-263.61-2351.4-562.46-88.5-48.96-173.8-127.56-255.6-212.64m-951.2-210.67c750.6-1104.39 887-2498.53 1229.4-3772.234-405.7-537.342-1090.1-1220.946-1812-1699.326-483-320.07-979.3-553.8-1415.4-553.76l-7.6-.09c-956.2-21.86-1312.7 683.85-1654.4 1530.087-378.5 937.275-717.7 2049.823-1470.5 2880.163 654.3 666.12 1925.1 1453.86 3115.6 1786.15 788 219.95 1543.2 259.45 2013.9-169.97zM38398-4238.29c-18.6-373.69-287.4-1621.64-599.1-1708.58-517.7 3.88-3371.9 409.76-3500.5 841.74 195.1 944.37 1152.4 354.44 1902.9 475.72 733.9 118.65 1465.1 265.96 2196.7 391.12" style="fill:#29bf12" transform="rotate(-39.51 671.59 96.986)scale(.00378 -.00378)"/><path d="M866.225 631.305c5.833-12.114 35.207-80.494 33.317-134.052-1.401-39.687-19.735-49.942-34.002-52.767-2.402-5.291-5.398-9.734-8.946-12.937-8.095-7.333-17.428-10-29.333-8.571-14 1.619-24.19 7.619-27.809 16.19-2.191 5.238-3.715 6.667-13.905 12.571-3.048 1.81-11.81 3.334-18.381 3.143-8.572-.095-18.476-6.095-22.381-13.428-.762-1.524-2-5.619-2.667-8.953-1.143-5.428-1.714-6.285-4.952-8.095-4.762-2.666-6.667-5.524-8.857-13.333-1.429-5.143-2.762-7.619-6.857-11.81-5.143-5.523-8.762-12.095-7.238-13.428.38-.476 3.047 0 5.809 1.047 3.524 1.334 5.619 2.953 7.048 5.143l1.904 3.334.381-2.762c.381-3.524 3.619-5.81 8.286-5.81 2.286 0 4.476-.762 6-2 1.619-1.524 1.81-2 .667-1.619-.953.381-3.905-.381-6.476-1.524-4.381-1.904-5.239-2-11.429-.762-7.714 1.429-11.905.762-11.905-1.904 0-3.143 12.572-20.477 26.953-37.143 4.571-5.238 11.142-12.857 14.666-16.857 4.953-5.81 7.048-9.238 9.524-16 2.857-7.715 4-9.429 10.762-16.191 14-13.904 36.381-27.143 53.238-31.428 11.429-2.857 27.238-4.572 43.143-4.572h11.905l8-7.428c8.666-8.191 14.476-12 22.285-14.762 6-2 14.572-2.191 19.81-.286 16.762 5.905 29.047 29.524 27.238 52.286l-.667 8.285 8.572 9.048c4.666 5.048 14.857 17.524 22.666 27.714 28.386 37.334 35.046 43.524 71.426 67.619 26 17.238 33.62 23.048 48.29 37.048 29.05 27.619 45.24 54.857 52.28 87.333 1.43 6.857 2.2 15.048 2.57 27.905.39 10.095.39 18.286.1 18.286-.28 0-2.19-5.048-4.28-11.238-16.1-48.572-42.67-79.239-76.58-88.381-8.66-2.286-26.19-2.381-34.85-.096-10.03 2.606-19.01 7.24-26.56 13.524-10.72.995-14.45 9.78-17.45 21.345-1.36 2.661-2.54 5.472-3.61 8.56-2.11 6.114-3.4 12.016-3.91 18.487-4.911 12.492-13.251 24.262-30.582 30.847-17.084 6.491-25.215 18.942-30.238 33.64-11.16 9.37-24.529 22.781-50.453 41.056-3.68 2.594-35.25 24.848-39.466 40.12.282-3.673-3.066-4.839 16.944-46.394m-103.726-231.47c0-.572-.381-.953-.762-.857s-3.809.476-7.524.857-7.047 1.047-7.428 1.428c-.476.477 1.905.572 5.238.191 3.238-.286 6.952-.572 8.19-.572 1.239 0 2.286-.476 2.286-1.047m-2.476 14.571c-6.476-1.809-11.333-2-9.81-.476.572.667 4.191 1.238 7.905 1.429l6.857.381zm53.429-83.524c1.047-1.904.857-2-3.715-2-4.381 0-4.857.286-6.19 3.239-1.048 2.095-2.667 3.619-4.857 4.285-1.715.572-4 1.81-4.858 2.667-1.523 1.524-1.333 1.714 1.905 2.286 2 .381 4.953.381 6.667 0 2.857-.667 8.762-6.191 11.048-10.477m-67.905 63.238c1.143-1.809 2-3.238 1.809-3.238-.19 0-2.571 1.619-5.333 3.715-10.095 7.619-11.048 15.238-2.952 22.952 3.428 3.333 6.19 4.762 13.904 7.238 9.81 3.143 23.619 5.333 18.572 2.953-1.429-.667-7.429-3.429-13.334-6.191s-10.666-5.524-10.666-6.19-1.143-1.715-2.572-2.381c-1.428-.667-2.476-1.905-2.476-3.143 0-1.905.476-2 10.762-1.429 5.905.286 12.952.667 15.714.953 3.429.285 4.477.095 3.429-.572-.952-.476-8.095-1.428-16-2-7.905-.667-14.762-1.524-15.238-1.905-.952-.857 1.143-5.904 4.381-10.762m66.381-76.857c-10.286-3.809-15.619-4.19-20-1.523-3.334 2-4.953 5.238-5.81 11.428-.285 2.191-1.428 5.619-2.571 7.81-1.81 3.523-1.905 3.809-.286 2.952 3.143-1.619 5.714-5.143 7.238-9.905 1.048-3.333 2.381-5.143 4.857-6.571 3.048-1.714 4-1.81 11.429-.762 4.571.571 9.524.762 11.143.476 2.666-.571 2.095-.952-6-3.905m130.476-65.142c-5.429-3.619-12.857-4.096-18.857-1.238-2.762 1.238-9.429 6.761-17.048 14.285-6.857 6.762-13.809 13.238-15.524 14.476l-2.952 2.096 2.476.095c5.048 0 13.238-4.952 21.905-13.429 9.428-9.143 13.238-11.619 18.381-11.619 3.524 0 9.428 3.334 10.762 6 .476.857 1.523 4.191 2.476 7.334 2.571 8.762 1.714 14.381-3.334 21.809-2.285 3.429-4.19 6.952-4.19 7.81 0 2.285-3.524 7.238-6.19 8.762-3.429 1.904-7.143 1.619-9.619-.667s-3.715-6.286-2.667-8.191c.381-.762 0-.571-.953.381-2.571 2.286-3.142 9.715-1.238 13.524 2.572 4.857 6.286 7.238 11.334 7.238 8.285 0 15.143-5.905 17.904-15.524.858-3.047 2.953-7.714 4.477-10.285 3.904-6.191 5.333-14.381 4-21.905-1.619-8.762-6.477-17.81-11.143-20.952" style="fill:#ff9914" transform="translate(260.26 160.946)scale(.8353)"/><path d="M2168 9537c242 22 450-16 674-123l118-57 82 27c54 18 114 29 176 32 86 4 98 2 132-20 86-58 110-206 57-362-30-91-64-161-78-161-4 0-17 12-27 27-17 26-17 30 15 97 65 142 66 311 1 346-66 34-205-15-295-105-28-28-51-55-51-59 1-10 152-107 166-107 21 0 13 28-12 45l-23 16 31 33c31 33 98 74 121 74 24 0-7-197-37-229-1-2-19 7-38 18-63 39-68 24-11-33 30-31 55-62 55-69 0-8-5-11-11-7-19 12-11-12 11-32 26-24 67-88 60-95-3-3 6-44 20-91 35-123 33-205-8-309-18-45-46-99-61-120-28-39-28-39-52-19-26 21-105 46-114 37-3-3 1-8 9-10 52-16 114-41 114-47-1-4-13-21-27-39-24-28-27-30-37-13-6 10-24 26-41 34-47 25-51 19-7-11 49-33 43-44-50-88l-64-31-13-81c-14-88-66-243-145-433-34-83-51-140-54-186-8-93 0-114 54-145 91-54 135-140 111-219-12-41-42-65-50-41-3 8-15 26-28 40l-23 27 4-36c3-24-2-43-15-60-20-24-20-24-54-4-18 10-36 27-39 37-4 10-14 23-24 28-16 8-18 5-14-31 5-59-15-62-111-14-85 43-136 95-181 188-50 101-92 439-65 521 7 20 33 73 59 118l46 81-49-28c-109-63-156-100-178-139-53-95-71-293-36-396 15-44 27-58 77-91 87-57 134-138 119-202-11-40-24-43-57-12l-29 28 5-53c4-40 1-54-10-59-21-7-68 12-106 43-35 30-46 28-28-6 17-32 4-77-19-68-10 4-42 11-71 17-77 14-203 78-247 124-22 24-53 76-73 123-18 46-58 135-87 198-49 104-54 123-54 189 0 45 9 108 24 163 29 103 27 210-6 299l-19 53-6-116c-8-133-16-175-73-341-59-175-57-191 40-278 65-58 87-95 87-147 0-36-22-52-37-26-4 5-13 10-21 10-12 0-12-5 0-29 20-38 20-65-1-72-18-7-93 23-111 45-18 21-32 17-20-6 14-26 14-61 0-69-6-4-45 6-86 22-90 34-169 103-248 218-60 88-95 154-151 290-85 205-87 215-87 432v196l-38-20c-21-11-61-39-88-62-48-42-50-43-64-22-39 56-25 188 34 312 42 89 143 216 233 293 62 53 93 91 139 168 107 177 240 322 381 415 102 67 302 165 403 198 94 31 227 60 302 67m343-907c-5 17-22 14-29-4-9-24 17-49 48-45 31 3 36 31 6 35-12 2-23 8-25 14m520 205c4 11 0 16-14 16-79-3-135-92-108-173l12-37 25 26c31 34 80 36 111 5 17-18 21-31 16-63-3-23-1-41 5-41 5 0 19-15 30-34 25-41 27-109 5-162-8-21-15-39-15-42 0-2 19 6 42 18 47 24 73 69 73 125 0 18 5 32 11 32 30 0-9 117-54 164-23 23-28 35-18 38s6 14-14 40c-25 34-52 53-95 66-12 4-16 12-12 22m-454-7c-46 26-157 35-133 11 21-20 15-29-17-29-42 0-114-27-162-60-35-25-37-29-21-40 15-12 12-16-29-34-26-11-62-38-82-60-33-38-42-54-59-111-8-24-7-25 10-10 18 14 19 13 14-21s2-80 18-119c6-14 2-18-18-19-16-1-8-6 23-15 26-8 71-26 100-40l52-27-65-28c-37-16-64-31-61-34 4-4 226 50 236 58 3 2-10 16-29 31-38 29-42 42-15 48 14 4 11 7-11 13-73 20-38 157 55 212 19 11 28 23 24 35-6 24 24 80 49 94 41 22 95 13 129-21 17-17 35-29 41-25 5 3 14 24 21 46 11 35 10 46-8 81-12 23-38 50-62 64m-535 481c-76 38-109 48-168 53-85 7-113-7-137-65-35-84-3-269 65-372l28-42-42-46c-24-25-48-56-55-68-11-21-9-22 20-22 31 0 42-14 22-26-14-9-43-100-31-100 6 0 24 7 42 16l31 16v-72c0-87 14-118 25-53 10 67 37 143 71 200 35 61 36 64 9 55-33-10-26 6 27 66 32 37 42 55 31 55-9 0-16 4-16 10 0 11 66 65 110 88 22 12 26 17 12 17-35 1-13 24 75 80l86 55-55 54c-35 35-89 71-150 101m-178-88c6 16 11 16 54 3 56-17 122-60 145-96 18-27 19-25-34-41-7-2-10-11-6-22 5-13-6-29-39-57-25-22-49-38-53-35-29 18-81 211-67 248m1157-596c-9 23-36 21-49-3-16-30 15-54 38-30 9 9 14 24 11 33m-136-45c-36 26-115 36-155 19-45-19-91-60-140-125-81-106-99-159-76-234 7-24 5-29-11-29-11-1 2-9 28-20 25-10 62-33 80-50 78-74 244-75 304-2 11 14 37 38 59 54 92 69 93 144 2 278-33 47-73 97-91 109m-87-186c47 17 82 13 121-14 52-37 35-105-36-145-23-13-13-34 16-34 40 0 14-26-39-40-60-16-136-11-182 13-34 17-46 45-14 31 36-15 88-17 119-4 29 12 42 31 22 31-6 0-24 14-42 30-55 52-40 106 35 132M649 7922c57 30 80 30 84-1 2-17 9-21 27-17 23 4 25 0 31-70 4-42 24-122 45-182 20-59 39-118 43-131 6-28-9-32-29-7-36 42-100 74-163 81-58 6-69 4-111-23-25-16-52-37-60-47-22-26-34-21-22 9 13 36 13 35-11 29-19-5-20-2-15 30 30 168 93 283 181 329m-101-612c54 38 82 49 82 32 0-4 23-6 51-4 95 6 317-92 317-141 0-9 30-64 67-122 38-59 66-109 64-111s-28 3-59 13c-59 17-219 22-236 7-5-5-27-15-48-22-22-7-56-26-78-43-21-17-43-28-48-25s-9-1-9-10-14-32-31-51c-18-21-39-63-49-101-10-35-22-64-26-64s-11 15-15 33-16 41-26 50c-11 9-30 47-44 85-21 58-24 87-24 211 0 139 1 144 28 184 16 22 54 58 84 79m450-542c0 13 8 15 39 9 75-12 155-38 198-63 52-30 111-87 104-99-3-5 3-25 15-44 37-65 86-271 63-271-5 0-12 5-16 11-12 20-90 64-158 90-80 30-119 32-119 8 0-15-9-16-56-11-66 8-145-23-189-76-15-18-33-32-40-30-24 5-78-87-120-207-5-16-15 2-37 73-67 212-68 276-3 401 34 67 88 137 88 115 0-4 15 4 34 19 49 37 105 59 154 59 31 0 43 4 43 16m115-621c0 33 184-19 234-66 61-57 74-90 68-173-12-148-94-305-197-377-172-120-374-82-464 89-20 37-24 62-24 140 0 85 3 101 32 157 20 40 38 63 50 63 10 0 27 15 38 33 41 67 135 119 215 119 35 0 48 4 48 15" style="fill:#ff0073" transform="matrix(.08368 0 0 -.08368 54.003 1220.56)"/><path d="M12030 9332c-69-245-60-347 43-485 65-87 110-166 89-154-11 5-28 20-40 33-41 47-184 145-244 168-67 26-257 42-269 23-8-14 72-122 127-172 58-52 120-87 259-145 66-28 136-61 155-75 105-73 207-186 283-314 24-41 47-73 52-73 13 0 3 192-16 288-29 153-90 318-196 527-57 111-118 241-136 289-34 88-66 145-83 145-5 0-16-25-24-55" style="fill:#ff0073;fill-rule:nonzero" transform="matrix(.09524 0 0 -.09524 39.847 1315.65)"/><path d="M4599 9049c63 59 87 68 80 31-3-13-13-77-23-142l-18-118 33-72c20-43 38-105 45-156 11-75 9-96-12-198-27-133-28-171-1-224 115-224 44-567-172-834-40-48-53-60-56-46-3 16-9 13-32-17-52-67-229-275-273-320-24-25-43-50-43-54 0-5-3-16-6-25-11-28 25-49 86-49 50 0 62-4 88-31 48-48 38-137-15-137-13 0-37-12-53-26-36-33-58-34-58-2 0 41-46 81-92 80-51 0-63-8-68-47-2-20-12-35-27-42-13-5-23-14-23-18 0-14-42-50-58-50-11 0-16 10-16 31 0 43-51 79-101 71-47-8-67-24-67-56 0-29-17-32-44-8-12 12-19 32-19 59 0 35 7 48 42 80q42 39 42 66c0 31-36 82-58 83-9 0-43-55-80-129-86-172-157-281-221-339-59-52-71-57-71-26 0 28-16 27-29-4-20-42-130-153-153-153-20 0-21 4-14 88 6 88 58 310 100 429 11 33 18 60 14 60s-40-22-80-47c-40-26-77-44-82-41-19 12 28 376 77 592 95 421 205 654 406 863 100 104 105 117 87 252-14 109-2 212 36 308 26 65 27 69 14 175-7 60-9 127-4 150l7 41 49-52c66-70 133-122 196-154 52-26 56-26 239-21l186 5 92 60c51 33 118 84 150 114m-78-272c9 30 15 58 13 62s-33-21-69-57c-36-35-94-79-129-98-106-57-155-147-142-264 6-50 3-68-17-108-13-27-26-48-30-48s-17 23-29 53c-19 46-21 59-11 97 10 36 9 55-5 103-23 77-55 115-143 166-39 23-96 69-126 102l-55 59 7-41c4-22 18-64 32-93l25-51-31-35c-83-95-59-257 51-334 41-28 54-32 126-33l81-1 37-53c20-30 39-54 42-55 3 0 14 16 24 35s30 47 44 62c23 25 29 27 58 17 18-6 51-8 75-5 188 30 284 258 160 382-33 33-34 37-20 59 9 13 23 49 32 79m-631-196c6 4 28 8 50 8 81 0 142-102 93-155-62-65-166-26-160 61 1 17 3 42 4 55s6 27 13 31m62-71c-4 9-10 16-15 16-16 0-21-21-10-42 13-25 63-29 63-5 0 8-7 16-16 16s-19 7-22 15m362 74c42 22 126 18 111-6-3-5 2-21 12-36 22-33 13-72-24-106-47-44-140-24-154 32-9 36 20 96 55 116m73-86c6 31-12 39-39 16-18-14-22-24-14-31 16-17 49-7 53 15m-410-676c-3 38-13 85-22 106l-16 36-1-74c-2-172-88-356-248-529-84-90-309-256-326-239-2 2 0 17 6 31 5 15 22 71 36 125 20 71 22 93 11 77-25-33-206-395-200-401 2-2 30 12 61 33 30 21 61 38 67 38 27 0 269 171 349 246 194 182 296 381 283 551m33-904c-13 37-18 38-83 12-51-20-84-61-84-106 0-38 19-51 72-51 37 0 54 6 77 28 32 30 37 63 18 117" style="fill:#29bf12" transform="matrix(.08592 0 0 -.08592 49.936 1239.984)"/><path d="M422.792 1436.61c.321-146.29 22.038-258.92 68.231-366.51 29.896-69.63 69.155-133.578 118.135-191.563 120.458-142.604 274.211-230.744 453.282-277.353 91.8-23.892 185.32-32.688 279.89-27.034 104.57 6.252 204.76 31.597 300.87 73.341 84.68 36.782 161.9 85.478 231.54 145.882 80.63 69.922 147.41 151.518 201.03 243.807 64.05 110.22 104.97 229.04 130.58 353.45 6.05 29.39 10.16 59.11 12.93 89.02 2.54 27.25-8.3 47.45-31.52 61.24-8 4.75-16.66 7.19-26.24 6.34-60.77-5.41-120.79-.59-180.36 12.54-84.33 18.58-162.55 51.95-236.73 95.56-35.12 20.64-69 43.15-102.01 67.01-11.92 8.61-24.2 14.49-39.72 8.87-14.52-5.27-25.77-24.31-19.43-39.54 6.84-16.42 13.13-33.1 18.82-49.96 16.83-49.85 27.67-100.93 31.15-153.57 10.26-154.81-29.22-295.61-121.48-420.3-65.29-88.233-151.11-150.282-255.26-185.665-75.86-25.774-153.78-33.271-233.25-21.2-90.512 13.749-172.237 48.428-243.137 106.342-85.053 69.473-139.993 157.913-158.696 266.873-14.622 85.19-4.555 167.53 37.058 244.23 43.083 79.41 107.821 133.93 195.719 156.48 99.81 25.62 189.466 2.29 263.266-69.62 48.99-47.74 75.44-107.3 76.54-177.49.88-55.37-14.24-104.63-49.17-147.2-40.83-49.77-93.37-76.91-158.593-72.94-76.325 4.64-139.692 61.12-150.614 131.16-7.799 50.02 9.104 92.23 45.504 126.67 10.474 9.92 22.955 14.59 37.853 8.92 23.545-8.97 30.2-36.29 12.877-54.54-2.797-2.94-5.927-5.57-8.9-8.35-27.746-25.94-31.425-64.39-9.12-95.29 31.323-43.41 89.003-56.32 136.053-30.46 56.22 30.91 87.75 96.26 78.07 159.84-15.8 103.72-101.98 175.32-209.488 172.77-69.509-1.65-126.638-32.5-170.911-85.31-59.305-70.75-76.424-153.53-63.267-243.3 9.912-67.63 38.37-127.55 82.394-179.44 48.073-56.65 108.214-96.641 178.05-122.011 56.652-20.58 115.042-30.341 175.292-26.59 82.61 5.142 158.14 31.403 226.59 78.037 71.92 49.004 125.73 113.694 164.23 191.204 27.82 56.01 45.31 115.32 53.37 177.47 3.48 26.8 5.83 53.57 5.26 80.6-2.28 107.19-30.52 206.97-87.18 298.05-89.8 144.35-218.94 235.21-382.61 278.41-56.45 14.9-113.883 22.13-172.146 20.14-117.488-4.01-220.387-44.03-305.738-126.39-81.872-78.99-135.58-174.61-167.615-283.01-22.072-74.69-32.191-151.07-31.399-199.62" style="fill:#ff0073;fill-rule:nonzero" transform="translate(477.939 448.01)scale(.03712)"/><path d="M1290.43 2541.15c-283.41.01-445.873-192.2-729.292-192.16-9.697 0-264.782-1.55-427.137 76.07-27.758 13.27-43.145-38.06-27.12-64.37 4.835-7.93 11.532-14.1 18.871-19.73 26.378-20.23 55.424-36.08 84.875-51.11 102.925-52.52 208.563-99.14 315.26-143.38 57.8-23.96 116.002-46.96 173.762-71.01 15.091-6.29 28.672-6.39 44.022-.38 43.28 16.96 88.144 27.68 134.627 31.89 23.306 2.12 46.647 4.99 69.958 4.73 90.464-1.04 177.754-18.56 261.594-52.94 77.05-31.58 146.19-75.36 207.88-131.37 30.28-27.49 57.31-57.69 82.23-89.95 9.68-12.53 10.79-12.62 24.59-3.36 12.66 8.49 24.96 17.24 41.65 16.64 12.74-.45 23.84-3.42 33.87-11.46 26.99-21.64 53.96-43.3 81.84-63.81 77.93-57.33 160.8-105.47 253.31-135.32 51.47-16.61 104.04-27.61 158.47-29.4 18.88-.62 37.59-.52 56.3 1.05 11.88 1 21.72-2.22 31.36-8.93 37.87-26.38 66.88-60.75 90.76-99.72 28.96-47.26 47.72-98.82 62.61-151.9 12.09-43.08 22.47-86.69 39.98-128.08 15.16-35.83 33.87-69.55 59.59-98.94 6.61-7.56 8.31-15.74 8.37-25.22.22-36.23-4.12-72.09-8.53-107.906-6.28-50.963-12.89-101.895-20.22-152.716-6.97-48.308-15.17-96.437-22.54-144.688-1.4-9.171-5.44-15.299-13.2-20.832-20.44-14.59-26.8-38.681-17.96-62.516 8.5-22.95 30.74-37.841 54.47-36.473 24.34 1.405 44.58 18.105 50.38 41.916 3.82 15.704 1.3 30.639-8.66 43.329-5.93 7.564-7.21 14.681-5.39 23.944 17.86 90.935 38.05 181.213 72.7 267.579 8.36 20.858 18.66 40.744 31.7 59.033 12.75 17.89 29.13 29.3 52.52 28.55 10.5-.33 17.07-4.12 21.46-13.61 9.62-20.83 17.32-42.408 24.89-63.981 30.99-88.327 61.25-176.904 89.54-266.148 3.26-10.299 3.03-18.956-1.99-29.064-13.36-26.9-1.93-59.874 24.06-73.418 27.1-14.128 59.26-4.918 74.09 21.22 14.26 25.143 5.61 59.532-19.99 72.899-11.69 6.106-16.88 14.473-20.28 26.369-23.19 81.276-42.06 163.536-56.12 246.856-5.41 32.097-6.67 64.707-9.17 97.157-.56 7.37 3.58 11.04 9.05 14.46 13.8 8.64 27.38 17.56 40.06 27.86 48.91 39.7 84.35 88.96 107.18 147.67 25.49 65.55-4.47 126.18-53.43 156.43-28.07 17.34-58.69 27.88-90.49 35.56-2.96.72-5.97 1.27-8.96 1.85-16.72 3.23-28.01 12.66-35.5 28.14-13.54 27.98-25.54 56.55-36.25 85.69-25.64 69.84-45.12 141.46-61.86 213.87-18.51 80.1-45.93 157.1-80.31 231.71-25.41 55.12-54.23 108.29-90.56 157.03-83.54 112.06-192.57 188.49-325.34 231.5-55.89 18.1-113.09 29.2-171.64 34.39-39.58 3.5-79.14 4.86-118.83 4.85-268.15-.09-258.96 113.64-527.11 113.65" style="fill:#ff0073;fill-rule:nonzero" transform="translate(477.939 448.01)scale(.03712)"/><path d="M5408 8977c166 34 318-64 389-250 60-157 25-449-68-563-17-20-17-18-9 31 19 126 4 267-35 316-16 20-16 19-9-6 14-50 6-204-15-286-12-45-45-137-73-205-66-156-79-215-73-316 12-198 105-285 373-349 259-61 384-110 545-214 157-103 291-235 462-457 164-212 205-273 259-376 116-227 159-405 158-663-1-241-41-442-123-622-37-82-117-208-131-208-5 0-5 27-1 60 18 141 5 274-15 170-15-74-149-324-174-324-5 0-6 55-4 123 5 128-11 266-46 391-17 61-35 75-35 28 0-35-33-126-42-115-4 4-18 39-31 77-41 118-92 211-178 326-71 96-125 146-156 146-27 0 85-406 132-483 27-43 28-62 8-144-30-121-51-1084-25-1158 10-31 10-37-7-47-11-6-50-38-86-71s-72-60-80-61c-25 0-29 14-12 39l16 25-35-15c-19-8-47-21-63-28-38-18-63 0-42 30 8 10 16 26 20 36 3 10 18 21 34 25 48 10 104 37 128 63 21 22 24 41 31 169 5 80 12 327 16 549 6 353 5 411-9 460-11 35-15 73-11 106 9 75-82 348-162 484-84 143-97 152-97 64 0-27-4-63-9-80-12-42 33-475 56-539 20-58 20-92 0-148-25-73-95-905-86-1035 3-40 3-79 0-87-6-16-148-113-188-129-16-6-36-8-44-4-13 4-11 11 10 33 22 25 23 27 4 20-67-25-125-38-133-30-15 15 1 45 28 51 14 4 22 12 19 20-3 9 12 15 50 20 76 10 134 42 151 83 19 45 77 744 79 942 4 356-25 684-68 788-9 20-28 75-42 122-18 58-41 104-69 139-23 30-74 102-112 161-49 74-107 144-187 223-108 107-121 124-171 226-29 61-68 159-86 218s-35 108-38 108-5-61-4-134c1-74 1-139 1-144-1-15-52 55-81 112-14 28-37 93-51 146s-28 98-31 101c-2 2-8-24-12-59s-11-61-17-58c-18 11-61 109-88 200-24 78-28 113-28 224 0 230 49 354 286 725 236 368 294 525 220 599-17 17-35 20-120 20h-100l-146-68c-232-107-275-124-288-111-16 16 31 62 216 213 113 93 155 133 155 150 0 97 95 203 200 225m173-125c-102 48-220 8-246-82-9-30-7-34 25-49 68-32 119-20 187 45 31 30 47 37 78 36 37-1 38 0 19 15-12 9-40 25-63 35m-203-34c15 14 60 16 80 3 12-7 12-14-3-36-22-33-43-42-69-28-23 13-27 42-8 61m746-2826c-39 28-117 95-173 150-56 56-102 98-102 94s23-43 51-86c68-104 154-189 264-261 103-68 130-82 244-131 68-29 82-32 76-17-24 57-18 57 64 0 45-32 118-76 161-98 48-25 105-67 145-106 54-53 66-60 66-41 0 77-107 340-174 426-16 20-26 30-24 21 35-103 83-266 80-273-4-11-162 83-257 154-70 52-153 134-222 219l-34 42 22-58c12-32 34-83 49-113s25-58 22-61c-9-8-178 83-258 139" style="fill:#ff9914" transform="matrix(.0754 0 0 -.0754 117.45 1230.953)"/><path d="m5343.13 1742.79-80.1 52.53-39.56-190.35-39.56 190.35-80.1-52.54 52.54 80.11-190.36 39.55 190.36 39.56-52.54 80.1 80.1-52.54 39.56 190.36 39.56-190.35 80.1 52.53-52.54-80.1 190.35-39.55-190.35-39.56z" style="fill:#08bdbd;fill-rule:nonzero" transform="translate(-826.947 132.86)scale(.28634)"/><path d="M7634 8168c-15-6-46-29-69-51-26-26-61-46-96-56-81-24-113-44-163-103-56-67-76-77-214-110-165-39-225-75-288-173-46-71-75-169-76-253 0-70-1-70-26-61-44 17-75 12-93-16-23-35-12-74 30-114 19-17 32-36 31-41-7-24 36-66 132-128 114-73 186-147 202-207 12-43 45-74 70-64 13 4 15 17 10 57-4 30-2 51 4 51 20 0 92-42 127-74 38-34 73-40 93-16 21 25 2 56-57 94-92 59-89 78 12 89 59 6 61 7 61 37 0 39-42 59-81 40-13-7-51-17-83-24-69-15-167-2-247 33-72 31-51 34 31 4 76-28 152-33 205-14 64 22 73 91 22 150l-33 37 44-15c60-21 143-20 195 4 43 19 92 70 112 114 18 39 29 27 29-34 0-50 5-65 49-128 27-39 55-86 63-105s27-43 43-53 49-36 73-58c25-22 50-39 56-39 18 0 25 32 12 53-17 28-2 25 62-8 48-25 54-26 70-11 14 15 14 19 2 35-9 10-31 24-49 32-47 20-45 39 3 30 47-8 72 8 56 38-7 14-22 20-49 20-52 0-72 12-50 30 12 10 13 19 5 34-14 25-27 25-90-3-30-13-52-18-54-12s-20 39-41 73c-35 58-36 65-30 127 4 36 12 63 17 60 5-4 10-13 10-21 0-25 14-18 68 29 31 27 48 37 44 25-5-13 3-31 29-62 44-51 45-63 11-85-30-20-34-40-10-59 13-11 22-10 49 5 33 17 36 17 86-5 28-12 63-34 76-48 14-15 33-25 43-24 28 6 29 46 1 65-36 26-18 30 42 11 43-14 56-15 69-4 35 28 12 74-38 74-31 0-82 19-82 31 0 4 19 15 42 24q42 16.5 42 36c0 45-51 60-89 25-11-12-41-25-65-31l-43-9-54 67-54 68 19 65c19 64 19 65 92 103 101 54 131 89 131 157 0 51-3 56-57 109-32 31-61 68-64 83-4 15-22 40-39 54-26 22-41 27-86 25-33-2-65 4-85 15-35 19-81 22-120 6m105-123c29-24 22-51-15-60-19-5-35 0-54 14l-26 21 27 22c34 27 38 27 68 3m173-196c36-11 22-12-107-11-152 0-172 6-87 24 51 12 128 6 194-13" style="fill:#abff4f;fill-rule:nonzero" transform="matrix(.09525 0 0 -.09525 94.347 1293.566)"/><path d="M963.918 784.692c60.062 9.99 92.172-15.118 115.632-44.862 10.03-12.717 2.13-43.373-15.72-48.662-10-5.048-19.04-7.238-49.24-11.81-14.19-2.19-27.043-4.762-32.567-6.571-15.429-4.952-26-13.238-31.429-24.857-2.285-5.048-2.571-6.762-2.571-17.143 0-11.143.095-11.619 3.714-19.333 5.048-10.572 12.857-18.191 24-23.524 19.333-9.238 42.283-10.286 64.093-3.048 9.43 3.143 17.62 7.619 32 17.238 4.96 3.238 11.91 7.334 15.53 9.048 5.71 2.762 7.71 3.143 14.66 3.143 9.34 0 14.57-2.191 18.19-7.429 2.67-4 3.05-10.666.77-15.143-2-3.809-8.29-8.285-15.24-10.952-3.15-1.143-14.67-3.619-25.81-5.524-28.67-4.857-38.96-8.381-47.62-16.19-7.91-7.143-11.81-16.476-11.81-28.191.09-22.381 15.9-42.571 36.19-45.904 7.24-1.239 6.48-1.239 14.19-.096 8.38 1.238 15.62 4.667 21.62 10.381 2.48 2.286 6.76 6.095 9.62 8.381 5.52 4.476 7.9 8.667 7.14 12.762-.67 3.333 1.81 4.286 12.38 5.143 4.38.286 7.91.952 7.91 1.429 0 .38-2.29 1.047-5.05 1.428l-4.95.667 4.47 3.428c2.48 1.905 4.48 3.81 4.48 4.381 0 1.429-.38 1.238-5.81-1.905-2.76-1.619-7.71-4-11.14-5.238-5.24-1.904-6.67-2-9.91-1.047-8.19 2.476-28.47.857-38.95-3.048-6.48-2.476-9.62-1.809-12.19 2.476-5.05 8.286 0 16.191 12.47 19.619 2.2.572 12.39 2.191 22.58 3.619 20 2.762 29.52 4.953 38.57 8.953 21.33 9.428 32.67 30.19 29.43 53.524-5.05 35.333-42.29 50-79.53 31.238-3.81-1.905-13.62-7.905-21.71-13.429-8.19-5.429-17.14-10.952-20.1-12.286-21.52-9.523-43.997-3.428-45.425 12.286-.572 5.905 2.285 10.571 8.571 14.095 6.094 3.334 12.574 4.762 29.614 6.572 38 4.095 56.48 9.047 74.2 20.095 24.09 15.048 31.91 24.036 30.38 62.571-1.54 38.536-65.4 66.821-78.47 71.791-23.03 8.749-63.35 16.486-95.937 9.873-47.966-9.733-73.972-40.625-75.963-52.812-4.095-25.064 11.417-51.131 39.493-62.843 8.06-3.363 59.839-24.362 113.637-3.125 13.87 5.476 24.99 26.834 24.38 30.096-7.99 42.943-67.509 50.637-74.083 51.091-59.654 4.118-59.48-57.009-3.011-51.091-25.451.907-29.785 35.645-9.859 35.464 52.843-.48 76.983-53.568 17.048-56.63-27.103-1.385-60.565 10.259-68.112 28.186-10.791 25.634 5.576 47.118 45.245 53.715M1076.59 500.12c-1.71-1.428-5.9-1.619-7.9-.476-.95.667-.19 1.619 2.67 3.619 3.14 2.191 4.38 2.476 5.9 1.715 1.14-.572 2.38-.762 2.86-.381.47.381.19-.191-.57-1.239-.86-1.142-2.1-2.571-2.96-3.238" style="fill:#abff4f" transform="translate(81.347 91.813)"/><path d="M4654 7165c-50-25-124-112-143-169-9-27-17-82-17-123 0-88 26-150 104-257 28-38 59-85 69-105 25-48 31-133 14-190-12-38-20-48-42-50-40-5-91 44-125 120-36 80-63 109-104 109-47 0-73-33-73-90 0-82 36-128 178-223 146-97 223-207 225-323 1-62 1-63-31-66-50-5-100 35-136 110-52 106-97 137-148 104-33-22-41-60-26-116 25-86 69-124 257-216 134-65 180-93 214-129 70-77 112-180 86-212-29-34-170-7-236 46-16 12-52 53-80 90-64 85-119 123-186 129-61 6-86-13-86-63 0-47 32-95 128-189 92-91 109-100 240-134 164-41 256-113 289-227 28-99 34-108 60-108 39 0 99 59 171 168 76 115 149 186 254 247 103 59 204 163 232 239 12 33 23 69 23 80 0 32-30 53-74 53-130 0-286-127-367-299-25-52-55-109-67-126l-22-31-12 63c-7 34-22 100-35 147-18 70-21 93-12 139 16 84 37 115 153 228 88 85 111 113 120 150 15 56 1 108-38 138-41 32-81 27-129-16-34-31-47-53-69-126-23-77-35-97-97-167-39-43-76-79-83-79-23 0-64 62-77 115-25 106 24 227 129 319 82 72 113 125 113 195 0 47-5 60-31 86-17 17-41 31-53 31-34 0-81-54-94-106-28-112-36-130-88-188-30-34-63-62-74-63-13 0-26 15-40 49-32 70-22 149 34 288 37 91 45 123 49 199 6 108-11 170-68 254-60 87-95 167-109 242-7 38-18 70-24 70-7 0-27-8-46-17" style="fill:#ff0073;fill-rule:nonzero" transform="matrix(.0703 0 0 -.0703 138 1195.57)"/><path d="M2061 6704c-160-43-275-160-338-345-12-32-31-119-42-193-38-231-43-258-71-344-34-103-59-154-158-317-152-251-241-476-281-712-24-138-24-406-1-535 21-114 51-186 73-178 20 8 64 114 90 220 30 121 74 246 137 389 30 69 57 127 58 129 13 14-15-164-51-324-41-187-43-201-43-383 0-181 1-193 29-273 16-46 49-120 72-163 63-116 87-167 107-228 25-76 50-102 131-143 39-20 94-50 123-68 48-31 53-32 65-15 8 10 11 29 8 42-5 22-3 23 23 17 16-4 55-16 86-28 67-24 82-14 58 43l-15 36 36-7c45-8 52 3 27 44-18 30-62 63-168 126l-36 22 47 19c35 15 67 19 128 16l82-4 21-41c25-49 61-73 167-111 44-15 99-36 123-46 37-16 46-17 56-4 7 8 9 24 5 35-8 26-8 26 78 6 38-9 74-14 82-11 15 6 8 33-17 63-16 19-15 19 28 13 37-6 45-4 45 10 0 10-16 32-36 51-36 34-81 54-186 83-89 25-93 36-43 111 132 198 200 508 211 972l6 273 20-42c40-88 71-195 106-365 35-172 49-218 68-218 17 0 51 57 75 126 22 60 25 88 25 236 0 152-3 179-29 273-39 140-131 328-239 487-121 176-131 193-236 388-106 197-114 232-78 315 44 104 136 161 324 203 60 13 111 30 114 38 14 37-88 88-238 118-105 21-112 24-168 76-125 114-304 160-460 118m188-206 31-34-24-13c-36-20-69-17-103 8-22 16-38 20-58 15-38-9-25 10 24 36 58 30 93 27 130-12m418-102c-14-8-140-31-273-49-62-9-46 8 32 36 41 15 86 21 157 21 57 0 93-3 84-8m-341-393c91-47 174-149 247-306 76-162 104-342 112-733 8-408-19-651-103-912-80-252-187-379-343-408-27-5-62-7-78-4-27 5-27 6-13 41 14 32 13 36-1 36-9 0-54-26-100-57-113-78-175-94-244-65-73 30-136 140-161 282-18 100-14 177 17 329 66 316 83 539 64 814l-13 183 33 99c19 55 36 129 39 163l6 63-38-36c-31-29-38-32-38-17 0 37 73 239 112 309 43 77 138 184 187 209 100 52 225 57 315 10" style="fill:#08bdbd;fill-rule:nonzero" transform="matrix(.09524 0 0 -.09524 39.847 1315.65)"/><path d="M7639 6695c-64-20-109-46-127-74-14-22-122-79-149-79-18 0-44-32-44-52 0-29 73-116 115-137 20-11 66-28 100-38 86-25 131-70 131-132 0-48-5-59-67-161-50-82-66-141-78-289-9-112-14-130-58-226-62-136-75-214-55-330 18-100 47-164 75-161 11 1 25-6 31-15 15-20 41-8 32 16-4 9-1 20 6 24 10 6 10 29-1 107-19 139-10 169 94 329l53 80v101l1 101 21-89c25-105 20-128-44-240-67-116-77-156-70-277 5-79 13-118 33-161 24-53 48-74 48-44 0 7 10 1 21-13 18-22 22-24 32-10 5 8 8 26 5 39-4 16-1 24 10 24 13 0 16 16 16 86 1 119 17 160 91 223 139 121 180 169 198 230 9 33 19 59 22 59s2-27-2-60c-11-94-42-146-136-225-102-85-120-120-120-230 0-68-5-90-33-146-18-36-39-68-47-71-23-8-102 52-125 94-12 22-24 39-28 39-3 0-12-14-20-31-8-19-19-31-29-29-23 4-43-103-43-233-1-84 4-114 29-184 16-46 47-112 68-147 34-56 36-64 22-80-9-9-46-25-82-35-74-20-143-69-143-102 0-17 5-21 21-16 14 3 21 0 21-11 0-12 8-14 28-11 16 3 36 1 45-5 25-16 185 27 237 63 32 23 43 39 48 68 3 21 14 50 24 65 17 26 16 29-4 69-49 96-64 212-40 317l12 56 13-95c7-52 16-108 20-126 16-61 70-158 127-229l58-71-35-13c-84-30-160-76-179-110-25-41-13-64 23-45 18 10 22 9 22-3 0-21 21-27 51-13 17 8 26 7 32-2s22-9 68 3c85 22 132 49 183 104l44 47-7 101c-4 57-3 100 3 99 5 0 23-28 39-63 33-70 100-125 233-191 124-62 206-83 346-89 110-4 134-2 189 18 136 47 193 162 136 274-7 14-39 59-72 99-32 41-69 100-81 132-59 153 2 324 142 395 43 23 69 28 133 29 70 1 78 3 78 21 0 12-15 29-36 42-52 31-185 30-254-1-136-62-229-215-229-377 0-96 32-185 104-291 35-51 64-101 64-111 0-55-80-93-168-81-159 23-323 116-406 232-64 91-78 147-89 357-12 238-28 343-88 584-40 165-49 217-57 361-10 171-14 190-85 387-17 46-25 102-31 213-7 137-10 156-38 211-68 132-249 203-398 156m34-136 23-24-31-18c-54-32-111 3-73 44 27 29 53 29 81-2m275-49c10-5 24-24 31-41 11-26 10-37-5-69-21-45-55-68-69-46-5 8-9 34-9 58s-4 56-10 70c-7 19-6 28 3 32 20 8 39 7 59-4" style="fill:#ff0073;fill-rule:nonzero" transform="matrix(.07732 0 0 -.07732 144.814 1228.758)"/><path d="M3735 6331c-22-25-55-26-96-5-31 17-58 7-58-21 0-18-51-37-90-34-28 3-32 0-35-32-2-29-10-38-40-51-31-13-36-19-30-38 15-46 8-75-25-103-38-31-40-44-11-72 25-26 27-76 4-110-15-23-14-25 21-52 40-31 45-50 23-90-14-24-12-28 16-54 22-21 30-38 30-67 0-54-22-57-81-8-70 58-93 69-118 55-12-6-22-17-23-24s-2-18-3-25c0-7-12-25-26-39-21-23-24-31-14-52 8-18 7-31-3-50-12-22-11-30 6-58 12-18 18-41 14-50-8-21 45-90 69-90 10 0 36 15 59 35 80 68 110 72 110 16 0-22-10-41-32-61-26-24-31-34-25-61 5-27 0-39-32-74-30-34-36-48-32-72 4-20-2-45-15-72-24-45-28-74-12-84 6-4 10-33 8-65-2-49 1-61 21-77 13-11 24-27 24-36 0-24 31-69 47-69 7 0 25-11 40-25 54-50 225-62 291-21 82 53 126 139 103 206-32 96-138 132-204 70-43-40-29-115 20-114 16 0 19 5 14 25-9 35 17 55 52 39 20-9 25-19 25-46-1-115-181-127-234-16-23 50-22 86 4 141 29 60 75 96 214 168 210 110 299 222 308 388 9 157-41 250-194 364-124 91-162 155-71 117 35-15 52-15 120-5 72 11 86 10 153-10 40-13 87-30 103-39 36-18 75-11 84 15 4 10 12 27 19 36 17 23-4 51-37 51-71 1-176 83-201 157-9 28-25 59-36 69-12 10-24 39-27 64-6 35-12 46-27 46-10 0-22-5-25-10-13-21-64-11-89 15-29 31-31 31-56 5m140-197c0-5 3-1.01 5-7.01 5-15-12.86-35.12-37.86-22.12-30 16-31.41 26.62-29.14 28.13 18 12 62 12 62 1" style="fill:#abff4f;fill-rule:nonzero" transform="matrix(.09524 0 0 -.09524 33.043 1309.728)"/><path d="M12628 6073c-27-14-94-68-149-120-61-58-118-103-148-116l-50-21 65-65c72-73 108-142 135-257 10-42 21-76 25-76 11 0 68 91 93 148 12 27 29 76 37 110 15 61 54 412 46 419-2 2-26-8-54-22" style="fill:#29bf12;fill-rule:nonzero" transform="matrix(.09524 0 0 -.09524 39.847 1315.65)"/><path d="M5533 5031c119 38 229 20 277-46 19-26 21-43 19-142-1-62-7-129-14-149-27-87-98-159-229-237-38-22-88-57-113-77-56-45-131-157-155-232-10-32-32-89-49-126-47-106 1-51 61 69 53 107 66 117 136 104 47-8 117-71 142-126 31-67 27-216-6-306-32-85-101-184-175-250-76-69-88-63-85 42 3 97-9 165-45 245-29 64-80 105-105 85-9-7-24-6-50 5-21 9-54 16-73 16h-34l47-27c100-57 144-122 154-229 17-179-101-442-271-605-102-98-241-170-358-184-66-8-113 10-113 44 0 23 65 141 111 201 20 26 36 57 36 68 0 12 17 51 37 87 22 40 37 80 37 102 0 48 17 98 54 153 52 78 32 82-81 16-194-112-390-173-609-188-140-11-341 21-341 53 0 23 35 33 147 41 137 11 259 33 289 52 15 11 36 14 55 11 67-14 327 78 381 134 15 16 43 29 65 33 60 9 169 88 281 203 103 106 156 183 180 265l13 46-75 71c-42 40-76 76-76 81s16 49 37 97c20 49 36 100 36 113 0 15 21 45 56 79 30 31 82 95 114 144 112 166 180 228 292 264m28-216c-3 8-11 15-16 15-6 0-8-6-5-14 6-17-22-49-43-49-8 0-21 7-30 15-13 13-18 12-38-9l-22-24 48-7c27-3 58-2 69 4 25 14 44 50 37 69m-1081-38c45 4 87 9 93 10 33 4 209-24 263-42 78-25 154-72 178-109 43-65-17-229-130-353-207-227-547-387-929-436-255-32-484-4-566 69-32 28-33 30-20 72 22 75 117 202 243 328 270 267 577 430 868 461m411-551c47 49 81 77 89 72 56-33 134-104 134-123 0-29-68-143-117-199l-38-43-53 58c-93 101-109 123-100 139 4 9 43 52 85 96m-231-187c50 31 99 56 108 56 21 0 157-161 157-187 0-33-229-212-273-212-14 0-31 29-68 113-26 62-48 120-48 130 0 22 13 32 124 100m-319-152c160 58 151 61 209-75 27-63 49-123 49-132 0-21-96-65-239-110-160-50-154-54-158 111-2 119 0 140 15 153 10 8 65 32 124 53m-1354-7c77 18 228 15 252-5 15-13 10-22-52-84-51-51-68-77-68-98 0-34-4-35-79-7-61 23-173 116-173 143 0 17 33 31 120 51m336-36c18 11 34 20 37 20 21 0 161-59 165-70 6-15-137-208-160-217-22-9-156 61-183 94l-24 30 67 62c37 34 81 70 98 81m665-43c192 34 181 42 181-126 0-94-4-137-14-145-16-13-128-30-260-39-140-10-141-9-83 147 25 67 51 127 60 133 8 7 60 21 116 30m-434-33c20 23 27 24 134 21 132-4 145-11 124-69-58-161-78-205-101-215-17-8-52-6-130 7-130 21-168 34-168 55 0 15 88 140 141 201m-331-217c14 11 30 17 37 15 80-38 205-83 254-92 107-21 107-31-1-144-118-125-238-186-422-217-113-18-184-11-197 21-12 31 27 120 83 189 18 23 37 54 41 69 13 40 47 72 116 107 35 17 75 41 89 52" style="fill:#29bf12" transform="matrix(.08219 0 0 -.08219 89.098 1267.346)"/><path d="M9576 4414c-56-24-83-55-101-117-19-66-14-110 23-182 73-144 238-253 545-361 196-68 257-94 312-134 33-24 44-27 67-18 15 5 38 10 51 10 15 0 28 10 36 27 7 15 29 34 49 42 33 14 36 18 25 37-6 12-8 34-5 48 6 22 1 28-33 42-22 9-52 31-66 48-24 28-33 32-82 31-61-2-64 11-9 29 50 16 86 0 109-49 17-35 24-40 61-43 60-4 74-10 59-25-17-17-15-63 3-88 21-27 20-36-4-36-28 0-84-50-84-74 0-16-8-20-33-20-48 0-101-29-125-69-20-31-26-34-58-29-50 8-124-22-156-63-23-29-31-32-74-30-68 4-116-15-155-61-32-37-39-40-89-40-67 0-114-25-150-79-23-36-29-39-74-39-62 0-112-32-145-91-20-38-29-44-70-50-27-4-55-2-67 4-34 18-108 13-146-10-18-11-54-47-79-79-71-93-129-113-276-94-77 9-127-5-179-50-43-38-73-92-83-150-12-63-21-75-112-143-112-82-129-90-231-110-58-10-126-34-202-70-126-59-178-66-284-39-41 10-63 10-98 1-53-15-125-76-145-124-34-79-7-174 59-208 17-9 32-22 32-30 0-7 11-24 24-37l25-23 22 37c20 34 24 36 55 27 39-11 34-7 56-50 22-42 43-43 64-2 13 24 24 31 48 31 25 0 36-8 58-43 26-41 28-42 47-25 11 11 21 25 21 33 0 19 34 35 61 28 13-3 30-20 39-36 21-41 43-38 64 6 24 50 72 52 107 6 13-18 27-32 32-32s21 19 37 42c22 35 33 42 61 42 27 0 41-8 64-37 16-20 33-36 38-36s20 17 33 39c30 48 38 55 76 55 20 0 37-9 51-26 27-34 46-33 68 2 40 65 78 72 125 23l31-32 33 40c31 36 38 40 91 41 82 3 150 43 240 143 85 94 121 119 195 135 61 13 134 2 207-31l42-18-115 3c-111 4-118 3-168-25-29-16-72-55-97-87-96-122-124-150-193-196-70-47-98-55-143-40-19 6-27 1-45-30-30-50-71-64-115-38-18 11-35 21-37 20-3 0-14-18-26-40-30-59-85-73-121-33-28 31-45 26-68-20-31-61-73-71-125-27l-32 27-19-28c-50-72-88-86-124-46-26 28-43 26-65-8-10-16-23-33-29-37-21-15-55-8-79 18-32 34-44 33-67-5-14-25-25-31-53-31-30 0-40 6-58 36-13 20-27 37-32 37s-18-14-28-31c-13-23-26-32-47-32-43 0-82 21-99 55-20 38-32 37-57-5-62-102 10-203 193-269 169-61 310-66 518-17 201 47 611 107 901 131 396 32 430 39 579 111 157 75 238 164 298 322 19 53 32 68 97 118 42 31 97 75 123 97l46 40-25-45c-15-24-45-71-68-103-37-51-42-66-42-117 0-32 5-60 11-63 6-2 27 18 47 45s48 57 63 67l26 19-4-43c-2-27 3-52 12-64 15-20 17-18 51 30 77 111 104 133 104 86 0-14 8-36 19-50l20-24 30 51c50 84 91 135 141 171 182 133 253 261 204 365-30 63-68 81-168 77-92-4-154-28-213-83-43-40-49-38-24 9 49 96 161 160 308 177 59 7 60 7 101 71 42 65 73 94 135 126 49 25 55 21 16-10-74-58-132-180-108-225 55-103 347 206 390 412 6 30 23 79 37 109 19 38 26 70 25 110-1 31 2 88 6 126 6 64 5 70-22 102-21 25-29 46-30 84-2 60-28 105-70 121-21 8-31 20-36 45-10 52-53 97-100 105-32 5-43 13-53 37-20 48-69 77-135 79-48 1-61 7-91 36-29 28-46 35-92 39-31 2-66 0-76-6-16-9-27-5-54 19-42 37-98 49-159 32-44-12-48-11-76 16-34 32-109 45-155 26-27-12-36-10-71 13-59 39-92 44-146 23-47-18-47-18-79 9-40 34-95 44-148 28-38-11-44-10-73 14-32 27-94 45-113 34-6-4-21 8-34 26-23 32-23 34-4 48 11 8 28 14 39 14 32 0 20 32-18 48-46 19-95 19-142-2m141-283c7-21 2-19-21 6-16 18-16 21-2 15 9-3 19-13 23-21m147-52c25-25 20-36-12-25-16 5-43 12-61 16-28 6-29 7-10 15 33 14 65 11 83-6m208-68c38-39 31-54-10-21-24 18-37 21-74 16-59-9-81 5-33 22 57 21 82 17 117-17m208-52c32-33 24-42-19-20-32 15-47 17-76 9-42-12-55-4-27 17 31 22 96 19 122-6m509-95c10-12 17-21 14-21-2 0-23 9-46 21-37 19-38 21-14 21 15 0 35-9 46-21m120-78c22-27 7-33-20-9-18 18-20 24-9 24 9 0 22-7 29-15m58-118c3-10-1-25-10-34-14-14-16-13-16 18 0 36 14 45 26 16m-124-155c-54-15-104-55-122-100-12-28-14-29-56-20-24 6-55 7-68 4-16-4-23-2-19 5 4 6 30 11 58 11 46 0 52 2 63 30 13 32 48 68 74 78 9 3 39 5 68 5l53 1zm-390-212c7-3 11-14 8-25-4-16-10-18-31-10-73 28-166-6-205-74-21-36-28-40-50-34-79 22-147-5-184-75-19-35-24-38-53-31-73 17-131-3-164-58-13-21-24-40-26-42-1-2-12 2-25 9-12 7-36 12-53 13-52 1-34 18 19 19 44 0 52 3 67 30 25 43 93 76 151 73 26-1 48 0 50 2 2 3 12 18 22 34 30 48 77 70 149 70 59 0 64 3 82 32 18 31 58 57 111 75 25 8 103 3 132-8m-966-465c23-10 48-26 55-35 13-15 10-15-36-1-70 21-142 12-206-28-76-47-96-40-37 14 74 69 147 85 224 50m510-95c22-22 31-41 31-67 0-32 3-38 31-44 40-9 63-42 62-89l-1-37-9 36c-10 44-38 72-78 78-18 2-30 10-29 17 6 26-20 83-45 99-14 10-38 17-55 17-22 0-25 3-13 11 31 19 74 11 106-21m-1145-22c-32-18-81-54-108-81-55-54-60-53-29 8 33 65 90 101 163 104 28 1 26-2-26-31m417-184c36-15 45-15 113 1 68 17 78 17 131 2 32-10 67-24 79-33 19-15 18-15-16-6-102 29-224-3-304-78-65-60-109-70-183-39-30 12-67 23-82 23-28 0-27 1 26 55 30 30 66 63 81 73 33 23 104 24 155 2m874-151c0-47-6-38-14 21-5 33-4 42 3 31 6-9 11-32 11-52" style="fill:#29bf12;fill-rule:nonzero" transform="matrix(.09524 0 0 -.09524 39.847 1315.65)"/><path d="M9149 2510c-35-15-42-53-15-75 22-18 45-17 72 4 15 12 18 71 3 71-5 0-16 2-23 4-8 3-24 1-37-4" style="fill:#29bf12;fill-rule:nonzero" transform="matrix(.09524 0 0 -.09524 39.847 1315.65)"/><path d="M12176 4351c-89-134-247-253-407-308-48-16-139-38-203-48l-115-19 41-33c80-61 155-137 179-179 35-60 51-169 39-281-5-50-6-91-3-91 9 0 257 374 302 456 68 125 135 278 175 403 50 154 48 185-8 100" style="fill:#29bf12;fill-rule:nonzero" transform="matrix(.09524 0 0 -.09524 43.132 1296.616)"/><path d="M673.599 994.794c-3.997 2.519-7.642 6.896-17.576 18.466-9.714 11.24-13.714 18.57-14.286 25.91-.666 8.09 2.381 12.66 13.238 20.19 7.429 5.05 9.524 7.05 11.81 11.52 2.476 4.57 2.762 6.19 2.381 10.38-.762 6.48-4.476 11.81-9.905 14.48-7.809 3.81-18.095 2-20.666-3.53-1.715-3.8 0-5.23 5.333-4.66 3.524.38 4.762.09 6.476-1.62 4.762-4.76 1.333-10.57-9.333-15.62-9.143-4.38-13.524-8.1-16.857-14.38-5.715-10.38-4.572-20.48 3.523-32.86 6.667-10.19 10.477-18.47 11.81-25.617 1.619-8.476.762-8.762-2.381-.857-3.905 10.094-7.524 15.234-18.571 26.574-11.143 11.52-13.048 14.66-13.048 21.14 0 6.1 1.714 9.81 7.905 17.05 7.333 8.57 10.095 14.47 10.095 22 0 10.09-2.952 16.28-10.286 21.52-9.524 6.95-22.285 5.72-30.857-2.85-7.714-7.82-8.952-17.34-2.952-23.34 3.428-3.43 6.285-3.62 9.238-.66l2.19 2.18-2.19.96c-6.572 2.95-.953 13.62 7.143 13.62 8.19 0 12.857-8 9.619-16.58-.572-1.52-4.381-6.28-8.476-10.47-10.381-10.95-12-14.19-12-25.43 0-11.14 1.714-14.76 13.714-29.05 7.524-9.04 12.857-17.426 12.857-20.569 0-.666-1.333.667-3.048 2.953-3.428 4.766-11.809 11.336-17.428 13.616-2.095.86-8.667 2.57-14.476 3.72-12.286 2.38-14.667 3.43-18.858 8.28-9.142 10.38-4.19 25.53 8.286 25.53 6 .09 5.619 5.14-.857 9.14-7.048 4.28-17.333 1.52-24.381-6.57-5.238-5.91-7.619-12.86-7.619-22 .095-17.24 9.429-28.478 28.857-34.573 9.619-3.048 18.191-7.715 21.048-11.524 1.333-1.715 2.476-3.334 2.476-3.715 0-.285-2.476.762-5.429 2.381-4.285 2.286-8.285 3.334-18.381 4.858-7.142 1.047-15.047 2.761-17.523 3.809-5.81 2.572-11.524 7.81-18.857 17.334-13.143 17.05-31.429 24.67-49.143 20.48-14.286-3.34-24.381-11.05-30.476-23.34-3.334-6.855-3.81-8.569-4.096-16.855-.381-11.238 1.334-17.524 6.477-22.762 6.476-6.762 15.047-8.381 23.047-4.571 7.238 3.524 11.333 11.428 9.238 17.714-1.333 4.095-3.809 4.191-6.095.191-5.524-9.524-16.571-4.096-15.429 7.714.572 6.095 2.286 9.809 6.762 14.19 6.857 6.669 16.381 8.859 26.096 5.999 5.523-1.71 13.047-8.856 19.428-18.475 10.191-15.524 19.048-21.428 38.857-25.809 6-1.334 13.238-3.429 16-4.667l4.953-2.286-5.524-.666c-10.191-1.238-16.667-7.619-21.524-21.334-4.381-12.285-10.19-18.857-18.286-20.666-12.19-2.762-23.238 8.381-20.095 20.095 2.476 9.238 11.619 13.809 18 9.047 3.905-2.857 5.333-1.904 4.667 3.143-.953 7.238-7.429 11.715-16.857 11.715-10.096 0-19.619-7.334-23.81-18.572-1.809-4.762-2.19-7.238-1.809-13.428.666-9.429 3.238-15.429 9.714-22.286 6.095-6.476 14-10.476 22.571-11.524 18-2.19 32.476 5.238 41.619 21.333 8.762 15.143 12.286 18.477 19.429 18.477 8.381 0 10.476-6.286 5.809-17.905-2.19-5.333-2.762-8.572-3.143-17.524-.761-18.571 4.096-31.714 16.286-44.095 7.333-7.524 13.905-11.524 22.762-13.905 10.476-2.857 22.952-1.524 33.333 3.524 6.667 3.238 16.572 12.857 20.096 19.714 5.047 9.334 6.666 16.476 6.666 27.714-.095 12.286-1.238 16.953-6.952 30.096-4.953 11.428-5.048 12.19-2.857 16.952 2.381 5.048 8.952 7.905 16.285 7.238 7.619-.762 32.286-9.047 38.286-12.857 10.762-6.857 17.81-18.762 17.81-29.809.095-8.286-1.524-13.239-5.619-18-8.286-9.715-22.381-8.667-27.905 2-2.667 5.333-1.238 11.809 3.238 13.809 3.428 1.524 4.667 1.429 7.809-1.048 2.667-2.19 2.858-2.19 4.191-.381 2.381 3.429-.857 9.905-6.191 12.096-6.952 2.952-13.904 1.143-19.142-4.857-4.286-4.858-5.715-9.715-5.143-17.619.571-8 3.333-13.715 9.428-19.62 6.572-6.476 13.619-8.761 24.953-8.285 8 .381 9.619.762 15.428 3.905 7.619 4.19 14.857 12.476 18.191 20.857 3.333 8.19 3.333 26.666 0 36.19-2.477 7.238-8.477 17.333-13.524 22.762-2.286 2.381-12.703 11.421-27.564 15.273-7.136 1.85-14.853-.062-21.769 3.87-2.003 1.139-5.143 2.953-5.143 2.953s12.213-4.542 31.89 0c3.629.837 47.553-.552 46.718 2.36-1.003 3.501-1.041 13.028-7.662 14.323-1.768-1.31-31.225-1.062-44.661-.97-26.611.183-24.751-.495-21.142 0 9.883 1.357 24.692 11.483 25.333 19.048-18.153 9.284-19.357 5.584-21.048 4.094-7.335-6.462-23.168-7.015-30.519-5.896m-55.671-83.531c-4.572-1.905-6.667-1.81-9.81.666-3.333 2.572-3.619 5.429-.381 4.477 5.239-1.715 6.762-1.715 10.096-.096 1.904.953 4.666 3.429 6.095 5.619 3.143 4.762 4.857 5.143 3.428.667-1.714-4.952-5.714-9.809-9.428-11.333m-6.381 11.143c0-.762-1.143-1.524-2.571-1.81-2.953-.571-2.953-.667-.477 4.286 2.477 4.857 6.953 7.333 11.619 6.476 1.905-.286 3.429-.952 3.429-1.429 0-1.238-3.143-2.476-5.714-2.19-2.381.286-6.286-3.048-6.286-5.333" style="fill:#08bdbd" transform="translate(93.754 115.241)scale(.9719)"/><path d="M9158 3928c-124-43-154-92-151-247 1-58-3-132-10-163-11-57-68-179-83-179-4 0-3 20 1 45 38 195-42 389-194 466-51 26-164 46-163 29 0-6 21-48 47-94 70-122 137-265 156-330 22-73 22-201 0-319-25-134-14-137 93-27 88 90 170 143 255 166 23 6 106 20 184 31 172 25 238 49 338 121 42 31 92 64 110 74 19 9 35 21 35 26 0 15-65 66-111 86-47 22-142 26-193 8-18-6-83-50-144-98-91-72-244-163-273-163-4 0 35 44 87 97 115 119 136 154 197 327 36 103 45 139 36 150-17 21-150 17-217-6" style="fill:#abff4f;fill-rule:nonzero" transform="matrix(.09524 0 0 -.09524 39.847 1315.65)"/><path d="M4226 3154c-13-14-30-50-36-79-13-62-32-102-62-128-38-35-66-7-80 80-12 73-68 103-110 60-32-32-27-85 17-177 43-90 52-180 24-238-20-39-44-44-84-15-42 30-54 56-99 210-44 149-72 205-112 226-38 20-55 19-76-4-26-30-20-69 19-121 56-73 72-112 73-175 1-52-1-57-20-55-22 4-44 27-82 86-27 42-72 63-99 46-11-7-19-27-21-53-5-61 38-105 178-183 138-77 227-141 265-191 62-81 100-248 64-283-22-23-40-23-105 0-82 29-133 88-168 191-19 56-40 98-63 122-77 82-190 24-141-72 7-12 37-49 68-81 45-48 59-73 77-133 27-92 48-111 197-182 161-77 225-154 241-287 6-49 4-59-17-80-28-28-70-23-149 17-62 31-100 78-140 175-26 62-39 80-70 96-32 18-42 19-67 8-25-12-28-17-22-52 13-83 14-81-17-85-40-4-106 36-144 89-46 64-84 88-138 88-124-1-156-146-51-235 39-33 80-44 209-58 142-16 189-41 303-167 206-229 312-314 509-410 116-57 342-144 351-135 2 2-17 43-41 91-40 78-45 96-48 173-4 76 0 96 24 154 16 37 31 79 34 93 5 21 3 24-14 17-49-19-107-30-123-24-53 21-42 134 23 235 52 80 177 195 251 231 49 24 79 30 169 35 103 6 111 8 134 35 33 39 32 73-6 114-27 32-36 35-88 34-52 0-66-6-131-50-122-84-194-77-194 18 0 75 41 128 136 175 41 20 85 45 97 56 29 26 29 81 1 106-35 32-26 81 28 145 67 82-13 176-95 112-42-33-56-70-68-171-11-104-41-162-97-191-18-9-33-16-35-14-1 2-6 18-12 35-8 25-17 32-43 35-25 2-38-4-60-30-35-41-37-109-6-215 37-129 23-205-50-281-21-21-42-39-47-39-4 0-11 18-15 39-9 55-31 96-74 140-51 53-58 119-22 208 35 86 85 168 148 241 74 86 91 117 91 166 0 61-31 99-83 99-51 0-90-40-107-111-7-29-17-71-23-94-6-28-28-61-71-105l-61-63-27 25c-37 35-51 95-46 195 6 115 46 197 152 312 44 48 87 102 94 121 23 54 18 105-11 135-34 33-74 33-106-2" style="fill:#ff0073;fill-rule:nonzero" transform="matrix(.09524 0 0 -.09524 39.847 1315.65)"/><path d="M2390 3081c-10-9-17-23-17-31 0-7 29-51 64-96 106-138 201-284 197-304-3-13-34-32-96-57-161-66-212-103-205-148 2-14 15-30 32-38 36-18 177-34 293-34 59 0 94-4 101-13 6-7 19-43 28-79 59-227 129-331 184-276 22 22 42 106 43 177 0 73 11 129 27 135 8 3 69-17 137-44 150-61 206-70 224-37 24 45-5 92-138 221-68 67-124 128-124 137 0 8 24 55 53 104 111 184 129 238 94 273-12 12-28 22-36 22-23 0-100-45-205-120-66-46-108-69-128-69-23 0-52 20-122 84-110 101-192 158-271 188-70 26-113 27-135 5m708-319c0-6-5-11-11-11s-10 5-10 11c0 5 4 10 10 10s11-5 11-10m-326-21c0-6-5-11-10-11-6 0-11 5-11 11 0 5 5 10 11 10 5 0 10-5 10-10m263-42c0-6-5-11-11-11s-10 5-10 11c0 5 4 10 10 10s11-5 11-10m-195-42c4-6 2-11-4-11s-13 5-17 11c-3 5-2 10 4 10s14-5 17-10m130-21c2-8-2-12-10-9-7 2-16 11-18 18-3 8 1 12 9 10 8-3 16-11 19-19m-166-84c0-6-5-11-11-11s-10 5-10 11c0 5 4 10 10 10s11-5 11-10m-84-21c0-6-5-11-11-11s-10 5-10 11c0 5 4 10 10 10s11-5 11-10m273-6c0-9-5-14-11-10-6 3-10 11-10 16 0 6 4 10 10 10s11-7 11-16m-95-53c0-9-5-13-10-10-6 4-11 11-11 17 0 5 5 10 11 10 5 0 10-8 10-17m173 6c4-6 2-10-4-10s-13 4-17 10c-3 6-2 11 4 11s14-5 17-11m142-94c0-6-5-11-10-11-6 0-11 5-11 11 0 5 5 10 11 10 5 0 10-5 10-10m-304-11c0-6-3-10-5-10-3 0-8 4-11 10-4 6-2 11 4 11s12-5 12-11" style="fill:#abff4f;fill-rule:nonzero" transform="matrix(.09524 0 0 -.09524 39.847 1315.65)"/><path d="M1953 3009c0-4 9-25 21-48 46-91 131-162 244-204 75-28 166-45 166-30 0 19-76 135-114 174-58 60-155 104-243 110-41 3-74 2-74-2" style="fill:#abff4f;fill-rule:nonzero" transform="matrix(.09524 0 0 -.09524 39.847 1315.65)"/><path d="M5350 1787c-163-56-289-198-275-310 13-113 34-168 84-225 37-41 10-38-64 7-40 23-78 43-85 43-6 0-12 4-12 9 0 6-14 25-32 44s-37 55-43 82c-20 85-19 83-47 51-71-83 11-233 172-312 143-70 165-103 34-50-69 27-87 30-146 24-103-10-158-49-158-111 0-42 10-44 49-10 29 26 45 32 90 33 30 0 59 0 65-2 6-1 55-16 109-32 106-31 150-55 73-40-127 26-136 25-190-18-28-22-58-53-66-68-20-38-19-98 1-115 19-15 18-16 42 36 11 22 36 51 59 65 38 24 45 25 143 17l102-8-66-9c-54-7-69-13-83-35-35-53-11-134 51-166 65-33 93-8 51 45-12 15-21 36-21 46 0 17 8 20 50 20 27 0 65 4 84 10 28 8 42 6 69-10 63-38 161-56 259-48 49 4 94 7 100 7s43-11 83-25l72-25-38-42c-21-24-38-48-38-55 0-17 69-14 104 4 44 23 64 56 64 106 0 53-13 65-87 83-52 13-53 14-18 15 21 0 73-11 116-26 98-34 142-76 155-145 12-63 20-70 44-39 35 42 27 107-21 179-23 33-48 63-55 66-8 3-49 11-92 19-133 22-113 33 46 25 170-9 255-34 301-90 32-39 52-33 52 16 0 50-34 86-119 129l-74 37-119-5c-65-3-119-2-119 2 0 10 94 32 173 40 74 7 89 14 155 69 60 50 88 113 74 165-13 51-32 50-55-3-25-59-112-127-174-137-23-3-61-9-84-13l-42-7 51 39c28 22 70 68 92 103 36 56 41 71 41 128 0 127-97 262-236 327-88 42-193 58-214 32-11-14-4-22 48-58 70-48 147-124 136-134-4-4-46 5-94 20-97 32-113 34-112 15 0-40 103-144 144-144 8 0 35-20 59-45 24-24 57-54 72-65l28-21-47-52-48-51-31 38c-20 24-63 54-113 78-73 36-80 42-80 71 0 28-4 31-32 31-25 0-32-5-35-24-2-17-8-23-19-19-9 4-39 7-67 7-44 0-51 3-54 22-8 55-79 50-75-5 2-22-4-27-37-33-21-4-64-18-95-33-31-14-58-24-59-23-1 2-13 23-25 48-23 46-22 66 4 66 7 0 37 15 65 34s74 43 103 54c66 24 116 61 137 100 21 42 7 48-77 28-106-24-137-28-143-18-7 11 84 86 152 125 62 35 60 33 37 50-28 20-115 18-179-4" style="fill:#29bf12;fill-rule:nonzero" transform="matrix(.09524 0 0 -.09524 39.847 1315.65)"/><path d="M9025 1339c-192-39-626-140-633-147s83-69 134-93c67-30 217-37 300-13 115 34 250 119 393 247l47 42-36-1c-21 0-113-16-205-35" style="fill:#abff4f;fill-rule:nonzero" transform="matrix(.09524 0 0 -.09524 39.847 1315.65)"/><path d="M6854 1039c-116-29-182-91-249-235-28-58-60-115-72-126-13-11-23-24-23-29 0-14 44-10 97 8 47 16 66 32 166 145 29 32 73 64 120 88 41 20 97 56 125 80l52 43-33 13c-45 18-136 25-183 13M7019 798c-23-11-65-40-94-64-28-23-72-54-97-69s-45-30-45-35c0-15 245-24 311-11 61 13 170 73 209 116 18 20 16 21-49 52-82 39-170 43-235 11" style="fill:#ff9914;fill-rule:nonzero" transform="matrix(.09524 0 0 -.09524 39.847 1315.65)"/><path d="M816.522 727.866c-1.354-.392-2.423-.634-3.019-.62-18.12.447-6.864 21.139-24.008 24.707-1.897.395-3.468 1.207-4.874.346-1.696-.548-3.088-.827-2.783-2.783.362-2.312 10.62-.694 13.223-6.611l-.696-3.48-.695.348c-3.168 5.971-8.744 5.084-16.356 6.96 0 0-3.569.539-4.062-1.268-.842-3.078 1.279-2.56 1.279-2.56 4.165-1.331 11.672-.038 13.919-3.826 3.06-4.89-1.274-7.968-3.829-13.225-1.473-3.033.696-10.091.696-10.091s-5.127-8.948-8.003-13.223c-5.585-8.302-4.137-16.849-6.261-21.463 1.679-.378 2.013.192 5.474 0 3.371-.186 4.392-10.012 4.144-11.937-1.794 6.754-.261 9.463-3.357 10.393s-6.024.142-6.848 0c-2.421-2.451-8.03-4.521-15.422-6.571 1.463 1.257.557 3.061 0 3.747l-2.783-3.4s.246-1.875.695-2.783c3.955-.491 7.179 1.494 9.395-2.435 3.78-6.086 0-24.707 0-24.707s-12.959-7.204-8.351-17.399c0 0 12.156-.081 15.926.731 2.564.552 6.693 4.141 6.693 4.141 4.243.945 4.707-3.298 8.698-2.435 2.541.547 3.029 2.126 3.829 4.523-1.181 1.441-1.78 1.768-4.175 2.087 1.554 3.935-.642 11.997 2.783 14.963 4.34 3.76 8.699 13.918 8.699 13.918l7.584 26.277 10.162 18.962c1.852 4.351 1.71 8.696 3.133 13.919l.043.008.285-.267q.462.287.91.525.27.065.54.135l-.054.112c3.295 1.589 14.264 1.182 17.703-.772 5.598-3.181 4.747-10.46 18.856-19.913 9.876-6.616 38.797-6.342 36.995-5.026-4.075 1.31-21.906.621-29.692 3.909-22.729 9.599-11.354 23.956-29.725 26.442-9.63 1.304-10.482.018-16.671-.358m-47.959-97.009c.632 4.411 4.269 3.265 4.689 3.536-.149-2.393-1.153-4.803-4.689-3.536" style="fill:#29bf12" transform="translate(-22.74 -13.273)scale(1.1109)"/><path d="m2252.07 95.176 22.45 44.899h-44.9z" style="fill:#08bdbd" transform="translate(-1588.576 -79.892)"/><path d="m2252.07 95.176 22.45 44.899h-44.9z" style="fill:#08bdbd" transform="rotate(90 1502.543 -86.844)"/><path d="m2252.07 95.176 22.45 44.899h-44.9z" style="fill:#08bdbd" transform="matrix(0 1 1 0 -86.146 -1589.387)"/><path d="m2252.07 95.176 22.45 44.899h-44.9z" style="fill:#08bdbd" transform="matrix(1 0 0 -1 -1588.576 1428.155)"/><path d="M2058 6539c12 42 26 76 32 76 15 0 50-74 164-345l15-36-142 5c-78 3-145 7-148 10s9 52 26 110c17 57 41 138 53 180m-196-374c41 19 60 20 258 15 249-7 267-13 297-91 32-83 19-208-24-231-35-18-523-25-555-7-110 59-95 258 24 314m-124-378c23 11 51 17 63 13 89-26 116-27 362-16 317 15 322 14 356-3 88-46 141-188 118-315-16-84-21-89-88-78-140 22-419 43-591 43-168 1-245-6-328-30-20-5-26 0-39 31-9 21-16 68-16 104 0 114 57 202 163 251m-20-428c265 48 997-25 1124-111 47-33 67-86 67-183v-80l-29 6c-382 82-664 98-985 53-164-23-380-81-485-130-50-23-94-42-99-42-13 0-11 81 5 149 19 80 58 142 128 206 74 68 168 113 274 132m303-358c72 9 381 7 476-4 197-21 463-84 653-154 77-28 80-31 132-108 109-163 162-344 161-556 0-70-7-156-17-205-9-46-19-136-20-199-3-109-6-125-60-278-75-215-74-214-129-296-86-130-192-222-471-413-157-107-262-209-345-334-139-211-223-436-296-800-64-323-72-394-64-641 11-337 22-358 23-42 0 278 1 287 34 445 105 498 194 761 333 975 114 175 165 223 451 424 73 51 170 132 231 194 155 154 203 245 258 489 17 77 36 144 40 149 5 5 24-26 42-69 112-270 161-558 139-809-35-377-166-668-423-937-174-182-330-298-537-400-165-81-153-63-323-476-149-366-173-429-204-539-40-145-165-203-295-139-90 45-109 73-131 196-19 100-78 431-174 970-34 192-45 233-135 484-54 151-113 310-131 354-45 107-132 244-225 354-212 249-309 446-348 714-65 442 103 941 426 1268 224 227 465 326 929 383" style="fill:#08bdbd" transform="matrix(.032 .00688 .00688 -.032 835.5 739.874)"/></svg>